  0
SECTION
  2
HEADER
  9
$ACADVER
  1
AC1024
  9
$ACADMAINTVER
 70
     6
  9
$DWGCODEPAGE
  3
ANSI_1252
  9
$INSBASE
 10
0.0
 20
0.0
 30
0.0
  9
$EXTMIN
 10
1.000000000000000E+20
 20
1.000000000000000E+20
 30
1.000000000000000E+20
  9
$EXTMAX
 10
-1.000000000000000E+20
 20
-1.000000000000000E+20
 30
-1.000000000000000E+20
  9
$LIMMIN
 10
0.0
 20
0.0
  9
$LIMMAX
 10
12.0
 20
9.0
  9
$ORTHOMODE
 70
     0
  9
$REGENMODE
 70
     1
  9
$FILLMODE
 70
     1
  9
$QTEXTMODE
 70
     0
  9
$MIRRTEXT
 70
     1
  9
$LTSCALE
 40
1.0
  9
$ATTMODE
 70
     1
  9
$TEXTSIZE
 40
0.2
  9
$TRACEWID
 40
0.05
  9
$TEXTSTYLE
  7
Standard
  9
$CLAYER
  8
0
  9
$CELTYPE
  6
ByLayer
  9
$CECOLOR
 62
   256
  9
$CELTSCALE
 40
1.0
  9
$DISPSILH
 70
     0
  9
$DIMSCALE
 40
1.0
  9
$DIMASZ
 40
0.18
  9
$DIMEXO
 40
0.0625
  9
$DIMDLI
 40
0.38
  9
$DIMRND
 40
0.0
  9
$DIMDLE
 40
0.0
  9
$DIMEXE
 40
0.18
  9
$DIMTP
 40
0.0
  9
$DIMTM
 40
0.0
  9
$DIMTXT
 40
0.18
  9
$DIMCEN
 40
0.09
  9
$DIMTSZ
 40
0.0
  9
$DIMTOL
 70
     0
  9
$DIMLIM
 70
     0
  9
$DIMTIH
 70
     1
  9
$DIMTOH
 70
     1
  9
$DIMSE1
 70
     0
  9
$DIMSE2
 70
     0
  9
$DIMTAD
 70
     0
  9
$DIMZIN
 70
     0
  9
$DIMBLK
  1

  9
$DIMASO
 70
     1
  9
$DIMSHO
 70
     1
  9
$DIMPOST
  1

  9
$DIMAPOST
  1

  9
$DIMALT
 70
     0
  9
$DIMALTD
 70
     2
  9
$DIMALTF
 40
25.4
  9
$DIMLFAC
 40
1.0
  9
$DIMTOFL
 70
     0
  9
$DIMTVP
 40
0.0
  9
$DIMTIX
 70
     0
  9
$DIMSOXD
 70
     0
  9
$DIMSAH
 70
     0
  9
$DIMBLK1
  1

  9
$DIMBLK2
  1

  9
$DIMSTYLE
  2
Standard
  9
$DIMCLRD
 70
     0
  9
$DIMCLRE
 70
     0
  9
$DIMCLRT
 70
     0
  9
$DIMTFAC
 40
1.0
  9
$DIMGAP
 40
0.09
  9
$DIMJUST
 70
     0
  9
$DIMSD1
 70
     0
  9
$DIMSD2
 70
     0
  9
$DIMTOLJ
 70
     1
  9
$DIMTZIN
 70
     0
  9
$DIMALTZ
 70
     0
  9
$DIMALTTZ
 70
     0
  9
$DIMUPT
 70
     0
  9
$DIMDEC
 70
     4
  9
$DIMTDEC
 70
     4
  9
$DIMALTU
 70
     2
  9
$DIMALTTD
 70
     2
  9
$DIMTXSTY
  7
Standard
  9
$DIMAUNIT
 70
     0
  9
$DIMADEC
 70
     0
  9
$DIMALTRND
 40
0.0
  9
$DIMAZIN
 70
     0
  9
$DIMDSEP
 70
    46
  9
$DIMATFIT
 70
     3
  9
$DIMFRAC
 70
     0
  9
$DIMLDRBLK
  1

  9
$DIMLUNIT
 70
     2
  9
$DIMLWD
 70
    -2
  9
$DIMLWE
 70
    -2
  9
$DIMTMOVE
 70
     0
  9
$DIMFXL
 40
1.0
  9
$DIMFXLON
 70
     0
  9
$DIMJOGANG
 40
0.7853981633974483
  9
$DIMTFILL
 70
     0
  9
$DIMTFILLCLR
 70
     0
  9
$DIMARCSYM
 70
     0
  9
$DIMLTYPE
  6

  9
$DIMLTEX1
  6

  9
$DIMLTEX2
  6

  9
$DIMTXTDIRECTION
 70
     0
  9
$LUNITS
 70
     2
  9
$LUPREC
 70
     4
  9
$SKETCHINC
 40
0.1
  9
$FILLETRAD
 40
0.5
  9
$AUNITS
 70
     0
  9
$AUPREC
 70
     0
  9
$MENU
  1
.
  9
$ELEVATION
 40
0.0
  9
$PELEVATION
 40
0.0
  9
$THICKNESS
 40
0.0
  9
$LIMCHECK
 70
     0
  9
$CHAMFERA
 40
0.5
  9
$CHAMFERB
 40
0.5
  9
$CHAMFERC
 40
1.0
  9
$CHAMFERD
 40
0.0
  9
$SKPOLY
 70
     0
  9
$TDCREATE
 40
2458673.820687465
  9
$TDUCREATE
 40
2458674.112354132
  9
$TDUPDATE
 40
2458673.820688426
  9
$TDUUPDATE
 40
2458674.112355093
  9
$TDINDWG
 40
0.0000000116
  9
$TDUSRTIMER
 40
0.0000000116
  9
$USRTIMER
 70
     1
  9
$ANGBASE
 50
0.0
  9
$ANGDIR
 70
     0
  9
$PDMODE
 70
     0
  9
$PDSIZE
 40
0.0
  9
$PLINEWID
 40
0.0
  9
$SPLFRAME
 70
     0
  9
$SPLINETYPE
 70
     6
  9
$SPLINESEGS
 70
     8
  9
$HANDSEED
  5
5D
  9
$SURFTAB1
 70
     6
  9
$SURFTAB2
 70
     6
  9
$SURFTYPE
 70
     6
  9
$SURFU
 70
     6
  9
$SURFV
 70
     6
  9
$UCSBASE
  2

  9
$UCSNAME
  2

  9
$UCSORG
 10
0.0
 20
0.0
 30
0.0
  9
$UCSXDIR
 10
1.0
 20
0.0
 30
0.0
  9
$UCSYDIR
 10
0.0
 20
1.0
 30
0.0
  9
$UCSORTHOREF
  2

  9
$UCSORTHOVIEW
 70
     0
  9
$UCSORGTOP
 10
0.0
 20
0.0
 30
0.0
  9
$UCSORGBOTTOM
 10
0.0
 20
0.0
 30
0.0
  9
$UCSORGLEFT
 10
0.0
 20
0.0
 30
0.0
  9
$UCSORGRIGHT
 10
0.0
 20
0.0
 30
0.0
  9
$UCSORGFRONT
 10
0.0
 20
0.0
 30
0.0
  9
$UCSORGBACK
 10
0.0
 20
0.0
 30
0.0
  9
$PUCSBASE
  2

  9
$PUCSNAME
  2

  9
$PUCSORG
 10
0.0
 20
0.0
 30
0.0
  9
$PUCSXDIR
 10
1.0
 20
0.0
 30
0.0
  9
$PUCSYDIR
 10
0.0
 20
1.0
 30
0.0
  9
$PUCSORTHOREF
  2

  9
$PUCSORTHOVIEW
 70
     0
  9
$PUCSORGTOP
 10
0.0
 20
0.0
 30
0.0
  9
$PUCSORGBOTTOM
 10
0.0
 20
0.0
 30
0.0
  9
$PUCSORGLEFT
 10
0.0
 20
0.0
 30
0.0
  9
$PUCSORGRIGHT
 10
0.0
 20
0.0
 30
0.0
  9
$PUCSORGFRONT
 10
0.0
 20
0.0
 30
0.0
  9
$PUCSORGBACK
 10
0.0
 20
0.0
 30
0.0
  9
$USERI1
 70
     0
  9
$USERI2
 70
     0
  9
$USERI3
 70
     0
  9
$USERI4
 70
     0
  9
$USERI5
 70
     0
  9
$USERR1
 40
0.0
  9
$USERR2
 40
0.0
  9
$USERR3
 40
0.0
  9
$USERR4
 40
0.0
  9
$USERR5
 40
0.0
  9
$WORLDVIEW
 70
     1
  9
$SHADEDGE
 70
     3
  9
$SHADEDIF
 70
    70
  9
$TILEMODE
 70
     1
  9
$MAXACTVP
 70
    64
  9
$PINSBASE
 10
0.0
 20
0.0
 30
0.0
  9
$PLIMCHECK
 70
     0
  9
$PEXTMIN
 10
1.000000000000000E+20
 20
1.000000000000000E+20
 30
1.000000000000000E+20
  9
$PEXTMAX
 10
-1.000000000000000E+20
 20
-1.000000000000000E+20
 30
-1.000000000000000E+20
  9
$PLIMMIN
 10
0.0
 20
0.0
  9
$PLIMMAX
 10
12.0
 20
9.0
  9
$UNITMODE
 70
     0
  9
$VISRETAIN
 70
     1
  9
$PLINEGEN
 70
     0
  9
$PSLTSCALE
 70
     1
  9
$TREEDEPTH
 70
  3020
  9
$CMLSTYLE
  2
Standard
  9
$CMLJUST
 70
     0
  9
$CMLSCALE
 40
1.0
  9
$PROXYGRAPHICS
 70
     1
  9
$MEASUREMENT
 70
     0
  9
$CELWEIGHT
370
    -1
  9
$ENDCAPS
280
     0
  9
$JOINSTYLE
280
     0
  9
$LWDISPLAY
290
     1
  9
$INSUNITS
 70
     1
  9
$HYPERLINKBASE
  1

  9
$STYLESHEET
  1

  9
$XEDIT
290
     1
  9
$CEPSNTYPE
380
     0
  9
$PSTYLEMODE
290
     1
  9
$FINGERPRINTGUID
  2
{DDEEAD5C-8270-43AD-B3F5-BBBC032103B6}
  9
$VERSIONGUID
  2
{FAEB1C32-E019-11D5-929B-00C0DF256EC4}
  9
$EXTNAMES
290
     1
  9
$PSVPSCALE
 40
0.0
  9
$OLESTARTUP
290
     0
  9
$SORTENTS
280
   127
  9
$INDEXCTL
280
     0
  9
$HIDETEXT
280
     1
  9
$XCLIPFRAME
280
     2
  9
$HALOGAP
280
     0
  9
$OBSCOLOR
 70
   257
  9
$OBSLTYPE
280
     0
  9
$INTERSECTIONDISPLAY
280
     0
  9
$INTERSECTIONCOLOR
 70
   257
  9
$DIMASSOC
280
     2
  9
$PROJECTNAME
  1

  9
$CAMERADISPLAY
290
     0
  9
$LENSLENGTH
 40
50.0
  9
$CAMERAHEIGHT
 40
0.0
  9
$STEPSPERSEC
 40
2.0
  9
$STEPSIZE
 40
6.0
  9
$3DDWFPREC
 40
2.0
  9
$PSOLWIDTH
 40
0.25
  9
$PSOLHEIGHT
 40
4.0
  9
$LOFTANG1
 40
1.570796326794897
  9
$LOFTANG2
 40
1.570796326794897
  9
$LOFTMAG1
 40
0.0
  9
$LOFTMAG2
 40
0.0
  9
$LOFTPARAM
 70
     7
  9
$LOFTNORMALS
280
     1
  9
$LATITUDE
 40
37.795
  9
$LONGITUDE
 40
-122.394
  9
$NORTHDIRECTION
 40
0.0
  9
$TIMEZONE
 70
 -8000
  9
$LIGHTGLYPHDISPLAY
280
     1
  9
$TILEMODELIGHTSYNCH
280
     1
  9
$CMATERIAL
347
3C
  9
$SOLIDHIST
280
     1
  9
$SHOWHIST
280
     1
  9
$DWFFRAME
280
     2
  9
$DGNFRAME
280
     2
  9
$REALWORLDSCALE
290
     1
  9
$INTERFERECOLOR
 62
   256
  9
$CSHADOW
280
     0
  9
$SHADOWPLANELOCATION
 40
0.0
  0
ENDSEC
  0
SECTION
  2
CLASSES
  0
CLASS
  1
ACDBDICTIONARYWDFLT
  2
AcDbDictionaryWithDefault
  3
ObjectDBX Classes
 90
        0
 91
        4
280
     0
281
     0
  0
CLASS
  1
VISUALSTYLE
  2
AcDbVisualStyle
  3
ObjectDBX Classes
 90
     4095
 91
        4
280
     0
281
     0
  0
CLASS
  1
MATERIAL
  2
AcDbMaterial
  3
ObjectDBX Classes
 90
     1153
 91
        4
280
     0
281
     0
  0
CLASS
  1
SUN
  2
AcDbSun
  3
SCENEOE
 90
     1024
 91
        4
280
     0
281
     0
  0
ENDSEC
  0
SECTION
  2
TABLES
  0
TABLE
  2
VPORT
  5
8
330
0
100
AcDbSymbolTable
 70
     1
  0
VPORT
  5
29
330
8
100
AcDbSymbolTableRecord
100
AcDbViewportTableRecord
  2
*Active
 70
     0
 10
0.0
 20
0.0
 11
1.0
 21
1.0
 12
0.0
 22
0.0
 13
0.0
 23
0.0
 14
0.5
 24
0.5
 15
0.5
 25
0.5
 16
0.0
 26
0.0
 36
1.0
 17
18.0
 27
-12.0
 37
0.0
 40
24.0
 41
1.5
 42
50.0
 43
0.0
 44
0.0
 50
0.0
 51
0.0
 71
     0
 72
   100
 73
     1
 74
     3
 75
     0
 76
     0
 77
     0
 78
     0
281
     0
 65
     1
110
0.0
120
0.0
130
0.0
111
1.0
121
0.0
131
0.0
112
0.0
122
1.0
132
0.0
 79
     0
146
0.0
 60
     3
 61
     5
292
     1
282
     1
141
0.0
142
0.0
 63
   250
361
3F
  0
ENDTAB
  0
TABLE
  2
LTYPE
  5
5
330
0
100
AcDbSymbolTable
 70
     1
  0
LTYPE
  5
14
330
5
100
AcDbSymbolTableRecord
100
AcDbLinetypeTableRecord
  2
ByBlock
 70
     0
  3

 72
    65
 73
     0
 40
0.0
  0
LTYPE
  5
15
330
5
100
AcDbSymbolTableRecord
100
AcDbLinetypeTableRecord
  2
ByLayer
 70
     0
  3

 72
    65
 73
     0
 40
0.0
  0
LTYPE
  5
16
330
5
100
AcDbSymbolTableRecord
100
AcDbLinetypeTableRecord
  2
Continuous
 70
     0
  3
Solid line
 72
    65
 73
     0
 40
0.0
  0
ENDTAB
  0
TABLE
  2
LAYER
  5
2
330
0
100
AcDbSymbolTable
 70
     2
  0
LAYER
  5
10
330
2
100
AcDbSymbolTableRecord
100
AcDbLayerTableRecord
  2
0
 70
     0
 62
     7
  6
Continuous
370
    -3
390
F
347
3E
  0
LAYER
  5
40
330
2
100
AcDbSymbolTableRecord
100
AcDbLayerTableRecord
  2
Layer 2
 70
     0
 62
     7
  6
Continuous
370
    -3
390
F
347
3E
  0
ENDTAB
  0
TABLE
  2
STYLE
  5
3
330
0
100
AcDbSymbolTable
 70
     1
  0
STYLE
  5
11
330
3
100
AcDbSymbolTableRecord
100
AcDbTextStyleTableRecord
  2
Standard
 70
     0
 40
0.0
 41
1.0
 50
0.0
 71
     0
 42
0.2
  3
txt
  4

  0
ENDTAB
  0
TABLE
  2
VIEW
  5
6
330
0
100
AcDbSymbolTable
 70
     0
  0
ENDTAB
  0
TABLE
  2
UCS
  5
7
330
0
100
AcDbSymbolTable
 70
     0
  0
ENDTAB
  0
TABLE
  2
APPID
  5
9
330
0
100
AcDbSymbolTable
 70
     1
  0
APPID
  5
12
330
9
100
AcDbSymbolTableRecord
100
AcDbRegAppTableRecord
  2
ACAD
 70
     0
  0
ENDTAB
  0
TABLE
  2
DIMSTYLE
  5
A
330
0
100
AcDbSymbolTable
 70
     1
100
AcDbDimStyleTable
  0
DIMSTYLE
105
27
330
A
100
AcDbSymbolTableRecord
100
AcDbDimStyleTableRecord
  2
Standard
 70
     0
178
     0
340
11
  0
ENDTAB
  0
TABLE
  2
BLOCK_RECORD
  5
1
330
0
100
AcDbSymbolTable
 70
     4
  0
BLOCK_RECORD
  5
1F
330
1
100
AcDbSymbolTableRecord
100
AcDbBlockTableRecord
  2
*Model_Space
340
22
 70
     0
280
     1
281
     0
  0
BLOCK_RECORD
  5
1B
330
1
100
AcDbSymbolTableRecord
100
AcDbBlockTableRecord
  2
*Paper_Space
340
1E
 70
     0
280
     1
281
     0
  0
BLOCK_RECORD
  5
23
330
1
100
AcDbSymbolTableRecord
100
AcDbBlockTableRecord
  2
*Paper_Space0
340
26
 70
     0
280
     1
281
     0
  0
BLOCK_RECORD
  5
48
330
1
100
AcDbSymbolTableRecord
100
AcDbBlockTableRecord
  2
block 2
340
0
102
{BLKREFS
331
49
102
}
 70
     0
280
     1
281
     0
  0
BLOCK_RECORD
  5
4E
330
1
100
AcDbSymbolTableRecord
100
AcDbBlockTableRecord
  2
block 3
340
0
102
{BLKREFS
331
4F
102
}
 70
     0
280
     1
281
     0
  0
BLOCK_RECORD
  5
54
330
1
100
AcDbSymbolTableRecord
100
AcDbBlockTableRecord
  2
block 4
340
0
102
{BLKREFS
331
55
102
}
 70
     0
280
     1
281
     0
  0
ENDTAB
  0
ENDSEC
  0
SECTION
  2
BLOCKS
  0
BLOCK
  5
20
330
1F
100
AcDbEntity
  8
0
100
AcDbBlockBegin
  2
*Model_Space
 70
     0
 10
0.0
 20
0.0
 30
0.0
  3
*Model_Space
  1

  0
ENDBLK
  5
21
330
1F
100
AcDbEntity
  8
0
100
AcDbBlockEnd
  0
BLOCK
  5
1C
330
1B
100
AcDbEntity
 67
     1
  8
0
100
AcDbBlockBegin
  2
*Paper_Space
 70
     0
 10
0.0
 20
0.0
 30
0.0
  3
*Paper_Space
  1

  0
ENDBLK
  5
1D
330
1B
100
AcDbEntity
 67
     1
  8
0
100
AcDbBlockEnd
  0
BLOCK
  5
24
330
23
100
AcDbEntity
  8
0
100
AcDbBlockBegin
  2
*Paper_Space0
 70
     0
 10
0.0
 20
0.0
 30
0.0
  3
*Paper_Space0
  1

  0
ENDBLK
  5
25
330
23
100
AcDbEntity
  8
0
100
AcDbBlockEnd
  0
BLOCK
  5
4A
330
48
100
AcDbEntity
  8
0
100
AcDbBlockBegin
  2
block 2
 70
     0
 10
0.0
 20
0.0
 30
0.0
  3
block 2
  1

  0
SPLINE
  5
4C
330
48
100
AcDbEntity
  8
Layer 2
 62
     1
420
 16717077
370
     9
100
AcDbSpline
210
0.0
220
0.0
230
1.0
 70
    11
 71
     3
 72
    71
 73
    67
 74
     0
 42
0.0000000001
 43
0.0000000001
 12
1.0
 22
0.0
 32
0.0
 13
1.0
 23
0.0
 33
0.0
 40
0.0
 40
0.0
 40
0.0
 40
0.0
 40
1.0
 40
1.0
 40
1.0
 40
2.0
 40
2.0
 40
2.0
 40
3.0
 40
3.0
 40
3.0
 40
4.0
 40
4.0
 40
4.0
 40
5.0
 40
5.0
 40
5.0
 40
6.0
 40
6.0
 40
6.0
 40
7.0
 40
7.0
 40
7.0
 40
8.0
 40
8.0
 40
8.0
 40
9.0
 40
9.0
 40
9.0
 40
10.0
 40
10.0
 40
10.0
 40
11.0
 40
11.0
 40
11.0
 40
12.0
 40
12.0
 40
12.0
 40
13.0
 40
13.0
 40
13.0
 40
14.0
 40
14.0
 40
14.0
 40
15.0
 40
15.0
 40
15.0
 40
16.0
 40
16.0
 40
16.0
 40
17.0
 40
17.0
 40
17.0
 40
18.0
 40
18.0
 40
18.0
 40
19.0
 40
19.0
 40
19.0
 40
20.0
 40
20.0
 40
20.0
 40
21.0
 40
21.0
 40
21.0
 40
22.0
 40
22.0
 40
22.0
 40
22.0
 10
15.5498021166718
 20
-10.00260521390955
 30
0.0
 10
15.5498021166718
 20
-10.00260521390955
 30
0.0
 10
15.5498021166718
 20
-10.39635487482537
 30
0.0
 10
15.5498021166718
 20
-10.39635487482537
 30
0.0
 10
15.5498021166718
 20
-10.39635487482537
 30
0.0
 10
10.8298017436792
 20
-10.39635487482537
 30
0.0
 10
10.8298017436792
 20
-10.39635487482537
 30
0.0
 10
10.8298017436792
 20
-10.39635487482537
 30
0.0
 10
10.8298017436792
 20
-1.850220631476292
 30
0.0
 10
10.8298017436792
 20
-1.850220631476292
 30
0.0
 10
10.8298017436792
 20
-1.796309125005829
 30
0.0
 10
10.87350565477545
 20
-1.752605213909583
 30
0.0
 10
10.92741716124591
 20
-1.752605213909583
 30
0.0
 10
10.92741716124591
 20
-1.752605213909583
 30
0.0
 10
11.37563490747043
 20
-1.752605213909583
 30
0.0
 10
11.37563490747043
 20
-1.752605213909583
 30
0.0
 10
11.37563490747043
 20
-1.807049420995099
 30
0.0
 10
11.39771776608585
 20
-1.856216630196488
 30
0.0
 10
11.43327328773307
 20
-1.891772151843611
 30
0.0
 10
11.46882880938016
 20
-1.927327673490746
 30
0.0
 10
11.51799601858155
 20
-1.94941053210621
 30
0.0
 10
11.5724402256671
 20
-1.94941053210621
 30
0.0
 10
11.5724402256671
 20
-1.94941053210621
 30
0.0
 10
13.08716241398085
 20
-1.94941053210621
 30
0.0
 10
13.08716241398085
 20
-1.94941053210621
 30
0.0
 10
13.19591265133975
 20
-1.94941053210621
 30
0.0
 10
13.28396773217752
 20
-1.861355451268524
 30
0.0
 10
13.28396773217752
 20
-1.752605213909583
 30
0.0
 10
13.28396773217752
 20
-1.752605213909583
 30
0.0
 10
13.73218547840196
 20
-1.752605213909583
 30
0.0
 10
13.73218547840196
 20
-1.752605213909583
 30
0.0
 10
13.78609698487251
 20
-1.752605213909583
 30
0.0
 10
13.82980089596877
 20
-1.796309125005829
 30
0.0
 10
13.82980089596877
 20
-1.850220631476292
 30
0.0
 10
13.82980089596877
 20
-1.850220631476292
 30
0.0
 10
13.82980089596877
 20
-2.246378920766106
 30
0.0
 10
13.82980089596877
 20
-2.246378920766106
 30
0.0
 10
13.82980089596877
 20
-2.300290427949108
 30
0.0
 10
13.78609698376043
 20
-2.34399433934051
 30
0.0
 10
13.73218547657738
 20
-2.343994338332815
 30
0.0
 10
13.73218547657738
 20
-2.343994338332815
 30
0.0
 10
12.22234735910335
 20
-2.343994310111296
 30
0.0
 10
12.22234735910335
 20
-2.343994310111296
 30
0.0
 10
11.95875979497627
 20
-2.34399430518436
 30
0.0
 10
11.70396245219752
 20
-2.445452607313591
 30
0.0
 10
11.5171070944753
 20
-2.63136516539651
 30
0.0
 10
11.51472691938322
 20
-2.633733331048524
 30
0.0
 10
11.51235474450378
 20
-2.636109531760351
 30
0.0
 10
11.50999061414529
 20
-2.638493723362141
 30
0.0
 10
11.32471896376155
 20
-2.825337528859766
 30
0.0
 10
11.2235513809212
 20
-3.079658942880719
 30
0.0
 10
11.22355138189778
 20
-3.34278665348668
 30
0.0
 10
11.22355138189778
 20
-3.34278665348668
 30
0.0
 10
11.2235514032421
 20
-9.09379081583802
 30
0.0
 10
11.2235514032421
 20
-9.09379081583802
 30
0.0
 10
11.22355140406421
 20
-9.315305744871353
 30
0.0
 10
11.30397555094169
 20
-9.529287077665357
 30
0.0
 10
11.44987670672044
 20
-9.695965560160932
 30
0.0
 10
11.44987670672044
 20
-9.695965560160932
 30
0.0
 10
11.45216282088197
 20
-9.698577232681346
 30
0.0
 10
11.45216282088197
 20
-9.698577232681346
 30
0.0
 10
11.6212877569885
 20
-9.891786721337754
 30
0.0
 10
11.86556941863946
 20
-10.00260521390955
 30
0.0
 10
12.1223439316271
 20
-10.00260521390955
 30
0.0
 10
12.1223439316271
 20
-10.00260521390955
 30
0.0
 10
15.5498021166718
 20
-10.00260521390955
 30
0.0
 10
15.5498021166718
 20
-10.00260521390955
 30
0.0
  0
SPLINE
  5
4D
330
48
100
AcDbEntity
  8
Layer 2
 62
     1
420
 16717077
370
     9
100
AcDbSpline
210
0.0
220
0.0
230
1.0
 70
    11
 71
     3
 72
    71
 73
    67
 74
     0
 42
0.0000000001
 43
0.0000000001
 12
1.0
 22
0.0
 32
0.0
 13
1.0
 23
0.0
 33
0.0
 40
0.0
 40
0.0
 40
0.0
 40
0.0
 40
1.0
 40
1.0
 40
1.0
 40
2.0
 40
2.0
 40
2.0
 40
3.0
 40
3.0
 40
3.0
 40
4.0
 40
4.0
 40
4.0
 40
5.0
 40
5.0
 40
5.0
 40
6.0
 40
6.0
 40
6.0
 40
7.0
 40
7.0
 40
7.0
 40
8.0
 40
8.0
 40
8.0
 40
9.0
 40
9.0
 40
9.0
 40
10.0
 40
10.0
 40
10.0
 40
11.0
 40
11.0
 40
11.0
 40
12.0
 40
12.0
 40
12.0
 40
13.0
 40
13.0
 40
13.0
 40
14.0
 40
14.0
 40
14.0
 40
15.0
 40
15.0
 40
15.0
 40
16.0
 40
16.0
 40
16.0
 40
17.0
 40
17.0
 40
17.0
 40
18.0
 40
18.0
 40
18.0
 40
19.0
 40
19.0
 40
19.0
 40
20.0
 40
20.0
 40
20.0
 40
21.0
 40
21.0
 40
21.0
 40
22.0
 40
22.0
 40
22.0
 40
22.0
 10
11.85757952121363
 20
-2.931981921722859
 30
0.0
 10
11.85757952121363
 20
-2.931981921722859
 30
0.0
 10
11.85757952124903
 20
-2.538232260807073
 30
0.0
 10
11.85757952124903
 20
-2.538232260807073
 30
0.0
 10
11.85757952124903
 20
-2.538232260807073
 30
0.0
 10
16.57757989424153
 20
-2.538232261230898
 30
0.0
 10
16.57757989424153
 20
-2.538232261230898
 30
0.0
 10
16.57757989424153
 20
-2.538232261230898
 30
0.0
 10
16.57757989347417
 20
-11.08436650457995
 30
0.0
 10
16.57757989347417
 20
-11.08436650457995
 30
0.0
 10
16.57757989346944
 20
-11.13827801105051
 30
0.0
 10
16.53387598236917
 20
-11.18198192214276
 30
0.0
 10
16.47996447589874
 20
-11.18198192213802
 30
0.0
 10
16.47996447589874
 20
-11.18198192213802
 30
0.0
 10
16.03174672967417
 20
-11.18198192209772
 30
0.0
 10
16.03174672967417
 20
-11.18198192209772
 30
0.0
 10
16.03174672967917
 20
-11.12753771501217
 30
0.0
 10
16.00966387106805
 20
-11.07837050580883
 30
0.0
 10
15.97410834942416
 20
-11.04281498415841
 30
0.0
 10
15.93855282778014
 20
-11.00725946250815
 30
0.0
 10
15.88938561858083
 20
-10.98517660388827
 30
0.0
 10
15.83494141149528
 20
-10.98517660388343
 30
0.0
 10
15.83494141149528
 20
-10.98517660388343
 30
0.0
 10
14.32021922318152
 20
-10.98517660374745
 30
0.0
 10
14.32021922318152
 20
-10.98517660374745
 30
0.0
 10
14.2114689858225
 20
-10.9851766037376
 30
0.0
 10
14.12341390497694
 20
-11.07323168456744
 30
0.0
 10
14.12341390496723
 20
-11.18198192192633
 30
0.0
 10
14.12341390496723
 20
-11.18198192192633
 30
0.0
 10
13.67519615874266
 20
-11.18198192188606
 30
0.0
 10
13.67519615874266
 20
-11.18198192188606
 30
0.0
 10
13.62128465227224
 20
-11.18198192188121
 30
0.0
 10
13.57758074117988
 20
-11.13827801078109
 30
0.0
 10
13.57758074118475
 20
-11.08436650431064
 30
0.0
 10
13.57758074118475
 20
-11.08436650431064
 30
0.0
 10
13.57758074122029
 20
-10.68820821502077
 30
0.0
 10
13.57758074122029
 20
-10.68820821502077
 30
0.0
 10
13.57758074122516
 20
-10.63429670783772
 30
0.0
 10
13.62128465343738
 20
-10.59059279645036
 30
0.0
 10
13.67519616062044
 20
-10.59059279746289
 30
0.0
 10
13.67519616062044
 20
-10.59059279746289
 30
0.0
 10
15.18503427809431
 20
-10.59059282581997
 30
0.0
 10
15.18503427809431
 20
-10.59059282581997
 30
0.0
 10
15.44862184222153
 20
-10.5905928307705
 30
0.0
 10
15.7034191850093
 20
-10.48913452866427
 30
0.0
 10
15.89027454274833
 20
-10.30322197059801
 30
0.0
 10
15.89265471784055
 20
-10.30085380494635
 30
0.0
 10
15.89502689272014
 20
-10.29847760423468
 30
0.0
 10
15.89739102307903
 20
-10.29609341263315
 30
0.0
 10
16.08266267347944
 20
-10.10924960715205
 30
0.0
 10
16.18383025634264
 20
-9.854928193140255
 30
0.0
 10
16.18383025538972
 20
-9.591800482534255
 30
0.0
 10
16.18383025538972
 20
-9.591800482534255
 30
0.0
 10
16.18383023456181
 20
-3.840796320182891
 30
0.0
 10
16.18383023456181
 20
-3.840796320182891
 30
0.0
 10
16.18383023375959
 20
-3.61928139114957
 30
0.0
 10
16.10340608690124
 20
-3.405300058348403
 30
0.0
 10
15.9575049311375
 20
-3.23862157583969
 30
0.0
 10
15.9575049311375
 20
-3.23862157583969
 30
0.0
 10
15.95521881697625
 20
-3.236009903319099
 30
0.0
 10
15.95521881697625
 20
-3.236009903319099
 30
0.0
 10
15.78609388088694
 20
-3.04280041464742
 30
0.0
 10
15.54181221924597
 20
-2.931981922053764
 30
0.0
 10
15.28503770625847
 20
-2.931981922030673
 30
0.0
 10
15.28503770625847
 20
-2.931981922030673
 30
0.0
 10
11.85757952121363
 20
-2.931981921722859
 30
0.0
 10
11.85757952121363
 20
-2.931981921722859
 30
0.0
  0
ENDBLK
  5
4B
330
48
100
AcDbEntity
  8
0
100
AcDbBlockEnd
  0
BLOCK
  5
50
330
4E
100
AcDbEntity
  8
0
100
AcDbBlockBegin
  2
block 3
 70
     0
 10
0.0
 20
0.0
 30
0.0
  3
block 3
  1

  0
SPLINE
  5
52
330
4E
100
AcDbEntity
  8
Layer 2
 62
     1
420
 16717077
370
     9
100
AcDbSpline
210
0.0
220
0.0
230
1.0
 70
    11
 71
     3
 72
    71
 73
    67
 74
     0
 42
0.0000000001
 43
0.0000000001
 12
1.0
 22
0.0
 32
0.0
 13
1.0
 23
0.0
 33
0.0
 40
0.0
 40
0.0
 40
0.0
 40
0.0
 40
1.0
 40
1.0
 40
1.0
 40
2.0
 40
2.0
 40
2.0
 40
3.0
 40
3.0
 40
3.0
 40
4.0
 40
4.0
 40
4.0
 40
5.0
 40
5.0
 40
5.0
 40
6.0
 40
6.0
 40
6.0
 40
7.0
 40
7.0
 40
7.0
 40
8.0
 40
8.0
 40
8.0
 40
9.0
 40
9.0
 40
9.0
 40
10.0
 40
10.0
 40
10.0
 40
11.0
 40
11.0
 40
11.0
 40
12.0
 40
12.0
 40
12.0
 40
13.0
 40
13.0
 40
13.0
 40
14.0
 40
14.0
 40
14.0
 40
15.0
 40
15.0
 40
15.0
 40
16.0
 40
16.0
 40
16.0
 40
17.0
 40
17.0
 40
17.0
 40
18.0
 40
18.0
 40
18.0
 40
19.0
 40
19.0
 40
19.0
 40
20.0
 40
20.0
 40
20.0
 40
21.0
 40
21.0
 40
21.0
 40
22.0
 40
22.0
 40
22.0
 40
22.0
 10
21.66091322778291
 20
-10.39541873735829
 30
0.0
 10
21.66091322778291
 20
-10.39541873735829
 30
0.0
 10
21.66091322778291
 20
-10.78916839827411
 30
0.0
 10
21.66091322778291
 20
-10.78916839827411
 30
0.0
 10
21.66091322778291
 20
-10.78916839827411
 30
0.0
 10
16.94091285479028
 20
-10.78916839827411
 30
0.0
 10
16.94091285479028
 20
-10.78916839827411
 30
0.0
 10
16.94091285479028
 20
-10.78916839827411
 30
0.0
 10
16.94091285479028
 20
-2.243034154925037
 30
0.0
 10
16.94091285479028
 20
-2.243034154925037
 30
0.0
 10
16.94091285479028
 20
-2.189122648454574
 30
0.0
 10
16.98461676588654
 20
-2.145418737358328
 30
0.0
 10
17.03852827235708
 20
-2.145418737358328
 30
0.0
 10
17.03852827235708
 20
-2.145418737358328
 30
0.0
 10
17.48674601858152
 20
-2.145418737358328
 30
0.0
 10
17.48674601858152
 20
-2.145418737358328
 30
0.0
 10
17.48674601858152
 20
-2.199862944443844
 30
0.0
 10
17.50882887719695
 20
-2.249030153645233
 30
0.0
 10
17.54438439884417
 20
-2.284585675292356
 30
0.0
 10
17.57993992049124
 20
-2.320141196939491
 30
0.0
 10
17.62910712969263
 20
-2.342224055554955
 30
0.0
 10
17.6835513367782
 20
-2.342224055554955
 30
0.0
 10
17.6835513367782
 20
-2.342224055554955
 30
0.0
 10
19.19827352509194
 20
-2.342224055554955
 30
0.0
 10
19.19827352509194
 20
-2.342224055554955
 30
0.0
 10
19.30702376245083
 20
-2.342224055554955
 30
0.0
 10
19.3950788432886
 20
-2.254168974717269
 30
0.0
 10
19.3950788432886
 20
-2.145418737358328
 30
0.0
 10
19.3950788432886
 20
-2.145418737358328
 30
0.0
 10
19.84329658951305
 20
-2.145418737358328
 30
0.0
 10
19.84329658951305
 20
-2.145418737358328
 30
0.0
 10
19.89720809598361
 20
-2.145418737358328
 30
0.0
 10
19.94091200707986
 20
-2.189122648454574
 30
0.0
 10
19.94091200707986
 20
-2.243034154925037
 30
0.0
 10
19.94091200707986
 20
-2.243034154925037
 30
0.0
 10
19.94091200707986
 20
-2.639192444214852
 30
0.0
 10
19.94091200707986
 20
-2.639192444214852
 30
0.0
 10
19.94091200707986
 20
-2.693103951397852
 30
0.0
 10
19.89720809487153
 20
-2.736807862789255
 30
0.0
 10
19.84329658768848
 20
-2.73680786178156
 30
0.0
 10
19.84329658768848
 20
-2.73680786178156
 30
0.0
 10
18.33345847021443
 20
-2.73680783356004
 30
0.0
 10
18.33345847021443
 20
-2.73680783356004
 30
0.0
 10
18.06987090608737
 20
-2.736807828633105
 30
0.0
 10
17.81507356330861
 20
-2.838266130762336
 30
0.0
 10
17.62821820558639
 20
-3.024178688845255
 30
0.0
 10
17.6258380304943
 20
-3.026546854497269
 30
0.0
 10
17.62346585561487
 20
-3.028923055209096
 30
0.0
 10
17.62110172525639
 20
-3.031307246810886
 30
0.0
 10
17.43583007487263
 20
-3.21815105230851
 30
0.0
 10
17.33466249203236
 20
-3.472472466329464
 30
0.0
 10
17.33466249300889
 20
-3.735600176935425
 30
0.0
 10
17.33466249300889
 20
-3.735600176935425
 30
0.0
 10
17.33466251435319
 20
-9.486604339286764
 30
0.0
 10
17.33466251435319
 20
-9.486604339286764
 30
0.0
 10
17.33466251517527
 20
-9.708119268320084
 30
0.0
 10
17.41508666205277
 20
-9.922100601114101
 30
0.0
 10
17.56098781783152
 20
-10.08877908360968
 30
0.0
 10
17.56098781783152
 20
-10.08877908360968
 30
0.0
 10
17.56327393199306
 20
-10.09139075613009
 30
0.0
 10
17.56327393199306
 20
-10.09139075613009
 30
0.0
 10
17.73239886809958
 20
-10.28460024478649
 30
0.0
 10
17.97668052975056
 20
-10.39541873735829
 30
0.0
 10
18.23345504273819
 20
-10.39541873735829
 30
0.0
 10
18.23345504273819
 20
-10.39541873735829
 30
0.0
 10
21.66091322778291
 20
-10.39541873735829
 30
0.0
 10
21.66091322778291
 20
-10.39541873735829
 30
0.0
  0
SPLINE
  5
53
330
4E
100
AcDbEntity
  8
Layer 2
 62
     1
420
 16717077
370
     9
100
AcDbSpline
210
0.0
220
0.0
230
1.0
 70
    11
 71
     3
 72
    71
 73
    67
 74
     0
 42
0.0000000001
 43
0.0000000001
 12
1.0
 22
0.0
 32
0.0
 13
1.0
 23
0.0
 33
0.0
 40
0.0
 40
0.0
 40
0.0
 40
0.0
 40
1.0
 40
1.0
 40
1.0
 40
2.0
 40
2.0
 40
2.0
 40
3.0
 40
3.0
 40
3.0
 40
4.0
 40
4.0
 40
4.0
 40
5.0
 40
5.0
 40
5.0
 40
6.0
 40
6.0
 40
6.0
 40
7.0
 40
7.0
 40
7.0
 40
8.0
 40
8.0
 40
8.0
 40
9.0
 40
9.0
 40
9.0
 40
10.0
 40
10.0
 40
10.0
 40
11.0
 40
11.0
 40
11.0
 40
12.0
 40
12.0
 40
12.0
 40
13.0
 40
13.0
 40
13.0
 40
14.0
 40
14.0
 40
14.0
 40
15.0
 40
15.0
 40
15.0
 40
16.0
 40
16.0
 40
16.0
 40
17.0
 40
17.0
 40
17.0
 40
18.0
 40
18.0
 40
18.0
 40
19.0
 40
19.0
 40
19.0
 40
20.0
 40
20.0
 40
20.0
 40
21.0
 40
21.0
 40
21.0
 40
22.0
 40
22.0
 40
22.0
 40
22.0
 10
17.96869063232473
 20
-3.324795445171617
 30
0.0
 10
17.96869063232473
 20
-3.324795445171617
 30
0.0
 10
17.96869063236014
 20
-2.931045784255818
 30
0.0
 10
17.96869063236014
 20
-2.931045784255818
 30
0.0
 10
17.96869063236014
 20
-2.931045784255818
 30
0.0
 10
22.68869100535264
 20
-2.931045784679643
 30
0.0
 10
22.68869100535264
 20
-2.931045784679643
 30
0.0
 10
22.68869100535264
 20
-2.931045784679643
 30
0.0
 10
22.68869100458528
 20
-11.47718002802869
 30
0.0
 10
22.68869100458528
 20
-11.47718002802869
 30
0.0
 10
22.68869100458055
 20
-11.53109153449926
 30
0.0
 10
22.64498709348027
 20
-11.57479544559149
 30
0.0
 10
22.59107558700985
 20
-11.57479544558676
 30
0.0
 10
22.59107558700985
 20
-11.57479544558676
 30
0.0
 10
22.14285784078528
 20
-11.57479544554647
 30
0.0
 10
22.14285784078528
 20
-11.57479544554647
 30
0.0
 10
22.14285784079028
 20
-11.52035123846091
 30
0.0
 10
22.12077498217917
 20
-11.47118402925758
 30
0.0
 10
22.08521946053527
 20
-11.43562850760716
 30
0.0
 10
22.04966393889125
 20
-11.40007298595689
 30
0.0
 10
22.00049672969195
 20
-11.37799012733702
 30
0.0
 10
21.9460525226064
 20
-11.37799012733217
 30
0.0
 10
21.9460525226064
 20
-11.37799012733217
 30
0.0
 10
20.43133033429265
 20
-11.3779901271962
 30
0.0
 10
20.43133033429265
 20
-11.3779901271962
 30
0.0
 10
20.32258009693361
 20
-11.37799012718635
 30
0.0
 10
20.23452501608805
 20
-11.46604520801619
 30
0.0
 10
20.23452501607833
 20
-11.57479544537508
 30
0.0
 10
20.23452501607833
 20
-11.57479544537508
 30
0.0
 10
19.78630726985375
 20
-11.57479544533481
 30
0.0
 10
19.78630726985375
 20
-11.57479544533481
 30
0.0
 10
19.73239576338334
 20
-11.57479544532996
 30
0.0
 10
19.68869185229096
 20
-11.53109153422982
 30
0.0
 10
19.68869185229583
 20
-11.47718002775938
 30
0.0
 10
19.68869185229583
 20
-11.47718002775938
 30
0.0
 10
19.68869185233138
 20
-11.08102173846952
 30
0.0
 10
19.68869185233138
 20
-11.08102173846952
 30
0.0
 10
19.68869185233626
 20
-11.02711023128647
 30
0.0
 10
19.73239576454847
 20
-10.9834063198991
 30
0.0
 10
19.78630727173153
 20
-10.98340632091163
 30
0.0
 10
19.78630727173153
 20
-10.98340632091163
 30
0.0
 10
21.29614538920542
 20
-10.98340634926871
 30
0.0
 10
21.29614538920542
 20
-10.98340634926871
 30
0.0
 10
21.55973295333264
 20
-10.98340635421926
 30
0.0
 10
21.81453029612041
 20
-10.881948052113
 30
0.0
 10
22.00138565385944
 20
-10.69603549404676
 30
0.0
 10
22.00376582895167
 20
-10.6936673283951
 30
0.0
 10
22.00613800383124
 20
-10.69129112768342
 30
0.0
 10
22.00850213419014
 20
-10.6889069360819
 30
0.0
 10
22.19377378459055
 20
-10.50206313060079
 30
0.0
 10
22.29494136745375
 20
-10.24774171658899
 30
0.0
 10
22.29494136650083
 20
-9.984614005983
 30
0.0
 10
22.29494136650083
 20
-9.984614005983
 30
0.0
 10
22.29494134567292
 20
-4.233609843631635
 30
0.0
 10
22.29494134567292
 20
-4.233609843631635
 30
0.0
 10
22.2949413448707
 20
-4.012094914598316
 30
0.0
 10
22.21451719801237
 20
-3.798113581797149
 30
0.0
 10
22.0686160422486
 20
-3.631435099288435
 30
0.0
 10
22.0686160422486
 20
-3.631435099288435
 30
0.0
 10
22.06632992808737
 20
-3.628823426767844
 30
0.0
 10
22.06632992808737
 20
-3.628823426767844
 30
0.0
 10
21.89720499199805
 20
-3.435613938096164
 30
0.0
 10
21.65292333035707
 20
-3.324795445502509
 30
0.0
 10
21.39614881736957
 20
-3.324795445479417
 30
0.0
 10
21.39614881736957
 20
-3.324795445479417
 30
0.0
 10
17.96869063232473
 20
-3.324795445171617
 30
0.0
 10
17.96869063232473
 20
-3.324795445171617
 30
0.0
  0
ENDBLK
  5
51
330
4E
100
AcDbEntity
  8
0
100
AcDbBlockEnd
  0
BLOCK
  5
56
330
54
100
AcDbEntity
  8
0
100
AcDbBlockBegin
  2
block 4
 70
     0
 10
0.0
 20
0.0
 30
0.0
  3
block 4
  1

  0
SPLINE
  5
58
330
54
100
AcDbEntity
  8
Layer 2
 62
     1
420
 16717077
370
     9
100
AcDbSpline
210
0.0
220
0.0
230
1.0
 70
    11
 71
     3
 72
    71
 73
    67
 74
     0
 42
0.0000000001
 43
0.0000000001
 12
1.0
 22
0.0
 32
0.0
 13
1.0
 23
0.0
 33
0.0
 40
0.0
 40
0.0
 40
0.0
 40
0.0
 40
1.0
 40
1.0
 40
1.0
 40
2.0
 40
2.0
 40
2.0
 40
3.0
 40
3.0
 40
3.0
 40
4.0
 40
4.0
 40
4.0
 40
5.0
 40
5.0
 40
5.0
 40
6.0
 40
6.0
 40
6.0
 40
7.0
 40
7.0
 40
7.0
 40
8.0
 40
8.0
 40
8.0
 40
9.0
 40
9.0
 40
9.0
 40
10.0
 40
10.0
 40
10.0
 40
11.0
 40
11.0
 40
11.0
 40
12.0
 40
12.0
 40
12.0
 40
13.0
 40
13.0
 40
13.0
 40
14.0
 40
14.0
 40
14.0
 40
15.0
 40
15.0
 40
15.0
 40
16.0
 40
16.0
 40
16.0
 40
17.0
 40
17.0
 40
17.0
 40
18.0
 40
18.0
 40
18.0
 40
19.0
 40
19.0
 40
19.0
 40
20.0
 40
20.0
 40
20.0
 40
21.0
 40
21.0
 40
21.0
 40
22.0
 40
22.0
 40
22.0
 40
22.0
 10
15.73146859694625
 20
-19.70340467913487
 30
0.0
 10
15.73146859694625
 20
-19.70340467913487
 30
0.0
 10
15.73146859694625
 20
-20.09715434005069
 30
0.0
 10
15.73146859694625
 20
-20.09715434005069
 30
0.0
 10
15.73146859694625
 20
-20.09715434005069
 30
0.0
 10
11.01146822395358
 20
-20.09715434005069
 30
0.0
 10
11.01146822395358
 20
-20.09715434005069
 30
0.0
 10
11.01146822395358
 20
-20.09715434005069
 30
0.0
 10
11.01146822395358
 20
-11.55102009670163
 30
0.0
 10
11.01146822395358
 20
-11.55102009670163
 30
0.0
 10
11.01146822395358
 20
-11.49710859023116
 30
0.0
 10
11.05517213504983
 20
-11.45340467913492
 30
0.0
 10
11.10908364152029
 20
-11.45340467913492
 30
0.0
 10
11.10908364152029
 20
-11.45340467913492
 30
0.0
 10
11.55730138774481
 20
-11.45340467913492
 30
0.0
 10
11.55730138774481
 20
-11.45340467913492
 30
0.0
 10
11.55730138774481
 20
-11.50784888622043
 30
0.0
 10
11.57938424636023
 20
-11.55701609542182
 30
0.0
 10
11.61493976800748
 20
-11.59257161706894
 30
0.0
 10
11.65049528965454
 20
-11.62812713871608
 30
0.0
 10
11.69966249885593
 20
-11.65020999733155
 30
0.0
 10
11.7541067059415
 20
-11.65020999733155
 30
0.0
 10
11.7541067059415
 20
-11.65020999733155
 30
0.0
 10
13.26882889425523
 20
-11.65020999733155
 30
0.0
 10
13.26882889425523
 20
-11.65020999733155
 30
0.0
 10
13.37757913161412
 20
-11.65020999733155
 30
0.0
 10
13.46563421245192
 20
-11.56215491649386
 30
0.0
 10
13.46563421245192
 20
-11.45340467913492
 30
0.0
 10
13.46563421245192
 20
-11.45340467913492
 30
0.0
 10
13.91385195867638
 20
-11.45340467913492
 30
0.0
 10
13.91385195867638
 20
-11.45340467913492
 30
0.0
 10
13.96776346514694
 20
-11.45340467913492
 30
0.0
 10
14.01146737624319
 20
-11.49710859023116
 30
0.0
 10
14.01146737624319
 20
-11.55102009670163
 30
0.0
 10
14.01146737624319
 20
-11.55102009670163
 30
0.0
 10
14.01146737624319
 20
-11.94717838599144
 30
0.0
 10
14.01146737624319
 20
-11.94717838599144
 30
0.0
 10
14.01146737624319
 20
-12.00108989317444
 30
0.0
 10
13.96776346403486
 20
-12.04479380456584
 30
0.0
 10
13.91385195685181
 20
-12.04479380355815
 30
0.0
 10
13.91385195685181
 20
-12.04479380355815
 30
0.0
 10
12.40401383937773
 20
-12.04479377533663
 30
0.0
 10
12.40401383937773
 20
-12.04479377533663
 30
0.0
 10
12.14042627525065
 20
-12.0447937704097
 30
0.0
 10
11.88562893247191
 20
-12.14625207253893
 30
0.0
 10
11.69877357474968
 20
-12.33216463062185
 30
0.0
 10
11.6963933996576
 20
-12.33453279627386
 30
0.0
 10
11.69402122477815
 20
-12.33690899698569
 30
0.0
 10
11.69165709441967
 20
-12.33929318858746
 30
0.0
 10
11.50638544403593
 20
-12.52613699408509
 30
0.0
 10
11.40521786119557
 20
-12.78045840810607
 30
0.0
 10
11.40521786217216
 20
-13.04358611871203
 30
0.0
 10
11.40521786217216
 20
-13.04358611871203
 30
0.0
 10
11.40521788351647
 20
-18.79459028106334
 30
0.0
 10
11.40521788351647
 20
-18.79459028106334
 30
0.0
 10
11.4052178843386
 20
-19.01610521009666
 30
0.0
 10
11.48564203121606
 20
-19.2300865428907
 30
0.0
 10
11.63154318699482
 20
-19.39676502538626
 30
0.0
 10
11.63154318699482
 20
-19.39676502538626
 30
0.0
 10
11.63382930115635
 20
-19.39937669790667
 30
0.0
 10
11.63382930115635
 20
-19.39937669790667
 30
0.0
 10
11.80295423726288
 20
-19.59258618656306
 30
0.0
 10
12.04723589891384
 20
-19.70340467913487
 30
0.0
 10
12.30401041190148
 20
-19.70340467913487
 30
0.0
 10
12.30401041190148
 20
-19.70340467913487
 30
0.0
 10
15.73146859694625
 20
-19.70340467913487
 30
0.0
 10
15.73146859694625
 20
-19.70340467913487
 30
0.0
  0
SPLINE
  5
59
330
54
100
AcDbEntity
  8
Layer 2
 62
     1
420
 16717077
370
     9
100
AcDbSpline
210
0.0
220
0.0
230
1.0
 70
    11
 71
     3
 72
    71
 73
    67
 74
     0
 42
0.0000000001
 43
0.0000000001
 12
1.0
 22
0.0
 32
0.0
 13
1.0
 23
0.0
 33
0.0
 40
0.0
 40
0.0
 40
0.0
 40
0.0
 40
1.0
 40
1.0
 40
1.0
 40
2.0
 40
2.0
 40
2.0
 40
3.0
 40
3.0
 40
3.0
 40
4.0
 40
4.0
 40
4.0
 40
5.0
 40
5.0
 40
5.0
 40
6.0
 40
6.0
 40
6.0
 40
7.0
 40
7.0
 40
7.0
 40
8.0
 40
8.0
 40
8.0
 40
9.0
 40
9.0
 40
9.0
 40
10.0
 40
10.0
 40
10.0
 40
11.0
 40
11.0
 40
11.0
 40
12.0
 40
12.0
 40
12.0
 40
13.0
 40
13.0
 40
13.0
 40
14.0
 40
14.0
 40
14.0
 40
15.0
 40
15.0
 40
15.0
 40
16.0
 40
16.0
 40
16.0
 40
17.0
 40
17.0
 40
17.0
 40
18.0
 40
18.0
 40
18.0
 40
19.0
 40
19.0
 40
19.0
 40
20.0
 40
20.0
 40
20.0
 40
21.0
 40
21.0
 40
21.0
 40
22.0
 40
22.0
 40
22.0
 40
22.0
 10
12.03924600148801
 20
-12.63278138694821
 30
0.0
 10
12.03924600148801
 20
-12.63278138694821
 30
0.0
 10
12.03924600152343
 20
-12.23903172603241
 30
0.0
 10
12.03924600152343
 20
-12.23903172603241
 30
0.0
 10
12.03924600152343
 20
-12.23903172603241
 30
0.0
 10
16.75924637451597
 20
-12.23903172645623
 30
0.0
 10
16.75924637451597
 20
-12.23903172645623
 30
0.0
 10
16.75924637451597
 20
-12.23903172645623
 30
0.0
 10
16.75924637374861
 20
-20.78516596980527
 30
0.0
 10
16.75924637374861
 20
-20.78516596980527
 30
0.0
 10
16.75924637374388
 20
-20.83907747627584
 30
0.0
 10
16.71554246264361
 20
-20.88278138736806
 30
0.0
 10
16.66163095617319
 20
-20.88278138736334
 30
0.0
 10
16.66163095617319
 20
-20.88278138736334
 30
0.0
 10
16.21341320994861
 20
-20.88278138732304
 30
0.0
 10
16.21341320994861
 20
-20.88278138732304
 30
0.0
 10
16.21341320995361
 20
-20.82833718023749
 30
0.0
 10
16.19133035134249
 20
-20.77916997103415
 30
0.0
 10
16.15577482969861
 20
-20.74361444938373
 30
0.0
 10
16.12021930805458
 20
-20.70805892773347
 30
0.0
 10
16.07105209885527
 20
-20.68597606911362
 30
0.0
 10
16.01660789176972
 20
-20.68597606910874
 30
0.0
 10
16.01660789176972
 20
-20.68597606910874
 30
0.0
 10
14.50188570345597
 20
-20.68597606897277
 30
0.0
 10
14.50188570345597
 20
-20.68597606897277
 30
0.0
 10
14.39313546609694
 20
-20.68597606896292
 30
0.0
 10
14.30508038525138
 20
-20.77403114979279
 30
0.0
 10
14.30508038524167
 20
-20.88278138715166
 30
0.0
 10
14.30508038524167
 20
-20.88278138715166
 30
0.0
 10
13.85686263901704
 20
-20.88278138711138
 30
0.0
 10
13.85686263901704
 20
-20.88278138711138
 30
0.0
 10
13.80295113254662
 20
-20.88278138710653
 30
0.0
 10
13.75924722145426
 20
-20.8390774760064
 30
0.0
 10
13.75924722145913
 20
-20.78516596953598
 30
0.0
 10
13.75924722145913
 20
-20.78516596953598
 30
0.0
 10
13.75924722149469
 20
-20.38900768024612
 30
0.0
 10
13.75924722149469
 20
-20.38900768024612
 30
0.0
 10
13.75924722149954
 20
-20.33509617306304
 30
0.0
 10
13.80295113371176
 20
-20.29139226167568
 30
0.0
 10
13.85686264089482
 20
-20.2913922626882
 30
0.0
 10
13.85686264089482
 20
-20.2913922626882
 30
0.0
 10
15.36670075836875
 20
-20.29139229104529
 30
0.0
 10
15.36670075836875
 20
-20.29139229104529
 30
0.0
 10
15.63028832249597
 20
-20.29139229599584
 30
0.0
 10
15.88508566528374
 20
-20.18993399388958
 30
0.0
 10
16.07194102302277
 20
-20.00402143582333
 30
0.0
 10
16.07432119811501
 20
-20.00165327017167
 30
0.0
 10
16.07669337299458
 20
-19.99927706946
 30
0.0
 10
16.07905750335347
 20
-19.99689287785847
 30
0.0
 10
16.26432915375388
 20
-19.81004907237735
 30
0.0
 10
16.36549673661708
 20
-19.55572765836556
 30
0.0
 10
16.36549673566416
 20
-19.29259994775958
 30
0.0
 10
16.36549673566416
 20
-19.29259994775958
 30
0.0
 10
16.36549671483625
 20
-13.54159578540824
 30
0.0
 10
16.36549671483625
 20
-13.54159578540824
 30
0.0
 10
16.36549671403403
 20
-13.32008085637492
 30
0.0
 10
16.2850725671757
 20
-13.10609952357375
 30
0.0
 10
16.13917141141194
 20
-12.93942104106504
 30
0.0
 10
16.13917141141194
 20
-12.93942104106504
 30
0.0
 10
16.13688529725069
 20
-12.93680936854444
 30
0.0
 10
16.13688529725069
 20
-12.93680936854444
 30
0.0
 10
15.96776036116139
 20
-12.74359987987277
 30
0.0
 10
15.72347869952042
 20
-12.63278138727911
 30
0.0
 10
15.46670418653292
 20
-12.63278138725602
 30
0.0
 10
15.46670418653292
 20
-12.63278138725602
 30
0.0
 10
12.03924600148801
 20
-12.63278138694821
 30
0.0
 10
12.03924600148801
 20
-12.63278138694821
 30
0.0
  0
ENDBLK
  5
57
330
54
100
AcDbEntity
  8
0
100
AcDbBlockEnd
  0
ENDSEC
  0
SECTION
  2
ENTITIES
  0
SPLINE
  5
41
330
1F
100
AcDbEntity
  8
Layer 2
 62
     7
420
 16777215
370
    35
100
AcDbSpline
210
0.0
220
0.0
230
1.0
 70
    11
 71
     3
 72
    53
 73
    49
 74
     0
 42
0.0000000001
 43
0.0000000001
 12
1.0
 22
0.0
 32
0.0
 13
1.0
 23
0.0
 33
0.0
 40
0.0
 40
0.0
 40
0.0
 40
0.0
 40
1.0
 40
1.0
 40
1.0
 40
2.0
 40
2.0
 40
2.0
 40
3.0
 40
3.0
 40
3.0
 40
4.0
 40
4.0
 40
4.0
 40
5.0
 40
5.0
 40
5.0
 40
6.0
 40
6.0
 40
6.0
 40
7.0
 40
7.0
 40
7.0
 40
8.0
 40
8.0
 40
8.0
 40
9.0
 40
9.0
 40
9.0
 40
10.0
 40
10.0
 40
10.0
 40
11.0
 40
11.0
 40
11.0
 40
12.0
 40
12.0
 40
12.0
 40
13.0
 40
13.0
 40
13.0
 40
14.0
 40
14.0
 40
14.0
 40
15.0
 40
15.0
 40
15.0
 40
16.0
 40
16.0
 40
16.0
 40
16.0
 10
52.26166788736987
 20
12.05659739176432
 30
0.0
 10
52.26166788736987
 20
12.05659739176432
 30
0.0
 10
52.26166788736987
 20
11.80659739176432
 30
0.0
 10
52.26166788736987
 20
11.80659739176432
 30
0.0
 10
52.26166788736987
 20
11.80659739176432
 30
0.0
 10
47.54166666666666
 20
11.80659739176432
 30
0.0
 10
47.54166666666666
 20
11.80659739176432
 30
0.0
 10
47.54166666666666
 20
11.80659739176432
 30
0.0
 10
47.54166666666666
 20
20.39242977566194
 30
0.0
 10
47.54166666666666
 20
20.39242977566194
 30
0.0
 10
47.54166666666666
 20
20.39242977566194
 30
0.0
 10
47.79166666666666
 20
20.39242977566194
 30
0.0
 10
47.79166666666666
 20
20.39242977566194
 30
0.0
 10
47.79166666666666
 20
20.39242977566194
 30
0.0
 10
47.79166666666666
 20
20.39242968982861
 30
0.0
 10
47.79166666666666
 20
20.39242968982861
 30
0.0
 10
47.79166666666666
 20
20.34502535230584
 30
0.0
 10
47.83009547500001
 20
20.30659654405389
 30
0.0
 10
47.87749981244153
 20
20.30659654405389
 30
0.0
 10
47.87749981244153
 20
20.30659654405389
 30
0.0
 10
49.9869444963693
 20
20.30659654405389
 30
0.0
 10
49.9869444963693
 20
20.30659654405389
 30
0.0
 10
50.03434883381068
 20
20.30659654405389
 30
0.0
 10
50.07277764214417
 20
20.34502535238722
 30
0.0
 10
50.07277764214417
 20
20.39242968982861
 30
0.0
 10
50.07277764214417
 20
20.39242968982861
 30
0.0
 10
50.07277764214417
 20
20.40729098849834
 30
0.0
 10
50.07277764214417
 20
20.40729098849834
 30
0.0
 10
50.07277764214417
 20
20.40729098849834
 30
0.0
 10
50.54166666666666
 20
20.40729098849834
 30
0.0
 10
50.54166666666666
 20
20.40729098849834
 30
0.0
 10
50.54166666666666
 20
20.40729098849834
 30
0.0
 10
50.54166666666666
 20
20.05659654405389
 30
0.0
 10
50.54166666666666
 20
20.05659654405389
 30
0.0
 10
50.54166666666666
 20
20.05659654405389
 30
0.0
 10
48.417707655165
 20
20.05659654405389
 30
0.0
 10
48.417707655165
 20
20.05659654405389
 30
0.0
 10
48.07195476444834
 20
20.05659654405389
 30
0.0
 10
47.79166666666666
 20
19.77630844627208
 30
0.0
 10
47.79166666666666
 20
19.43055555555555
 30
0.0
 10
47.79166666666666
 20
19.43055555555555
 30
0.0
 10
47.79166666666666
 20
12.68263838026259
 30
0.0
 10
47.79166666666666
 20
12.68263838026259
 30
0.0
 10
47.79166666666666
 20
12.336885489546
 30
0.0
 10
48.07195476444834
 20
12.05659739176432
 30
0.0
 10
48.417707655165
 20
12.05659739176432
 30
0.0
 10
48.417707655165
 20
12.05659739176432
 30
0.0
 10
52.26166788736987
 20
12.05659739176432
 30
0.0
 10
52.26166788736987
 20
12.05659739176432
 30
0.0
  0
SPLINE
  5
42
330
1F
100
AcDbEntity
  8
Layer 2
 62
     1
420
 16717077
370
     9
100
AcDbSpline
210
0.0
220
0.0
230
1.0
 70
    11
 71
     3
 72
    29
 73
    25
 74
     0
 42
0.0000000001
 43
0.0000000001
 12
1.0
 22
0.0
 32
0.0
 13
1.0
 23
0.0
 33
0.0
 40
0.0
 40
0.0
 40
0.0
 40
0.0
 40
1.0
 40
1.0
 40
1.0
 40
2.0
 40
2.0
 40
2.0
 40
3.0
 40
3.0
 40
3.0
 40
4.0
 40
4.0
 40
4.0
 40
5.0
 40
5.0
 40
5.0
 40
6.0
 40
6.0
 40
6.0
 40
7.0
 40
7.0
 40
7.0
 40
8.0
 40
8.0
 40
8.0
 40
8.0
 10
21.53160481313249
 20
-9.220107091472553
 30
0.0
 10
21.53160481313249
 20
-9.220107091472553
 30
0.0
 10
18.07160981896681
 20
-9.220107091472553
 30
0.0
 10
18.07160981896681
 20
-9.220107091472553
 30
0.0
 10
17.72366904425041
 20
-9.220107091472553
 30
0.0
 10
17.44160731604959
 20
-8.938045363271776
 30
0.0
 10
17.44160731604959
 20
-8.590104588555416
 30
0.0
 10
17.44160731604959
 20
-8.590104588555416
 30
0.0
 10
17.44160731604959
 20
-5.1301095943897
 30
0.0
 10
17.44160731604959
 20
-5.1301095943897
 30
0.0
 10
17.44160731604959
 20
-4.782168819673353
 30
0.0
 10
17.72366904425041
 20
-4.500107091472551
 30
0.0
 10
18.07160981896681
 20
-4.500107091472551
 30
0.0
 10
18.07160981896681
 20
-4.500107091472551
 30
0.0
 10
21.53160481313249
 20
-4.500107091472551
 30
0.0
 10
21.53160481313249
 20
-4.500107091472551
 30
0.0
 10
21.8795455878489
 20
-4.500107091472551
 30
0.0
 10
22.16160731604959
 20
-4.782168819673353
 30
0.0
 10
22.16160731604959
 20
-5.1301095943897
 30
0.0
 10
22.16160731604959
 20
-5.1301095943897
 30
0.0
 10
22.16160731604959
 20
-8.590104588555416
 30
0.0
 10
22.16160731604959
 20
-8.590104588555416
 30
0.0
 10
22.16160731604959
 20
-8.938045363271776
 30
0.0
 10
21.8795455878489
 20
-9.220107091472553
 30
0.0
 10
21.53160481313249
 20
-9.220107091472553
 30
0.0
  0
SPLINE
  5
43
330
1F
100
AcDbEntity
  8
Layer 2
 62
     1
420
 16717077
370
     9
100
AcDbSpline
210
0.0
220
0.0
230
1.0
 70
    11
 71
     3
 72
    29
 73
    25
 74
     0
 42
0.0000000001
 43
0.0000000001
 12
1.0
 22
0.0
 32
0.0
 13
1.0
 23
0.0
 33
0.0
 40
0.0
 40
0.0
 40
0.0
 40
0.0
 40
1.0
 40
1.0
 40
1.0
 40
2.0
 40
2.0
 40
2.0
 40
3.0
 40
3.0
 40
3.0
 40
4.0
 40
4.0
 40
4.0
 40
5.0
 40
5.0
 40
5.0
 40
6.0
 40
6.0
 40
6.0
 40
7.0
 40
7.0
 40
7.0
 40
8.0
 40
8.0
 40
8.0
 40
8.0
 10
15.42049370202139
 20
-9.093404679134904
 30
0.0
 10
15.42049370202139
 20
-9.093404679134904
 30
0.0
 10
11.96049870785566
 20
-9.093404679134904
 30
0.0
 10
11.96049870785566
 20
-9.093404679134904
 30
0.0
 10
11.6125579331393
 20
-9.093404679134904
 30
0.0
 10
11.33049620493853
 20
-8.811342950934128
 30
0.0
 10
11.33049620493853
 20
-8.463402176217768
 30
0.0
 10
11.33049620493853
 20
-8.463402176217768
 30
0.0
 10
11.33049620493853
 20
-5.003407182052038
 30
0.0
 10
11.33049620493853
 20
-5.003407182052038
 30
0.0
 10
11.33049620493853
 20
-4.655466407335679
 30
0.0
 10
11.6125579331393
 20
-4.373404679134902
 30
0.0
 10
11.96049870785566
 20
-4.373404679134902
 30
0.0
 10
11.96049870785566
 20
-4.373404679134902
 30
0.0
 10
15.42049370202139
 20
-4.373404679134902
 30
0.0
 10
15.42049370202139
 20
-4.373404679134902
 30
0.0
 10
15.76843447673778
 20
-4.373404679134902
 30
0.0
 10
16.05049620493848
 20
-4.655466407335679
 30
0.0
 10
16.05049620493848
 20
-5.003407182052038
 30
0.0
 10
16.05049620493848
 20
-5.003407182052038
 30
0.0
 10
16.05049620493848
 20
-8.463402176217768
 30
0.0
 10
16.05049620493848
 20
-8.463402176217768
 30
0.0
 10
16.05049620493848
 20
-8.811342950934128
 30
0.0
 10
15.76843447673778
 20
-9.093404679134904
 30
0.0
 10
15.42049370202139
 20
-9.093404679134904
 30
0.0
  0
SPLINE
  5
44
330
1F
100
AcDbEntity
  8
Layer 2
 62
     1
420
 16717077
370
     9
100
AcDbSpline
210
0.0
220
0.0
230
1.0
 70
    11
 71
     3
 72
    23
 73
    19
 74
     0
 42
0.0000000001
 43
0.0000000001
 12
1.0
 22
0.0
 32
0.0
 13
1.0
 23
0.0
 33
0.0
 40
0.0
 40
0.0
 40
0.0
 40
0.0
 40
1.0
 40
1.0
 40
1.0
 40
2.0
 40
2.0
 40
2.0
 40
3.0
 40
3.0
 40
3.0
 40
4.0
 40
4.0
 40
4.0
 40
5.0
 40
5.0
 40
5.0
 40
6.0
 40
6.0
 40
6.0
 40
6.0
 10
13.69049620493853
 20
-13.80809242268995
 30
0.0
 10
13.69049620493853
 20
-13.80809242268995
 30
0.0
 10
13.69049620493853
 20
-18.5280936433932
 30
0.0
 10
13.69049620493853
 20
-18.5280936433932
 30
0.0
 10
13.69049620493853
 20
-18.5280936433932
 30
0.0
 10
12.66924664574798
 20
-18.5280936433932
 30
0.0
 10
12.66924664574798
 20
-18.5280936433932
 30
0.0
 10
12.32132930091292
 20
-18.5280936433932
 30
0.0
 10
12.03924600148801
 20
-18.24600949625778
 30
0.0
 10
12.03924600148801
 20
-17.89809384684362
 30
0.0
 10
12.03924600148801
 20
-17.89809384684362
 30
0.0
 10
12.03924600148801
 20
-14.43809391466056
 30
0.0
 10
12.03924600148801
 20
-14.43809391466056
 30
0.0
 10
12.03924600148801
 20
-14.09003754530292
 30
0.0
 10
12.32132930091292
 20
-13.80809242268995
 30
0.0
 10
12.66924664574798
 20
-13.80809242268995
 30
0.0
 10
12.66924664574798
 20
-13.80809242268995
 30
0.0
 10
13.69049620493853
 20
-13.80809242268995
 30
0.0
 10
13.69049620493853
 20
-13.80809242268995
 30
0.0
  0
SPLINE
  5
45
330
1F
100
AcDbEntity
  8
Layer 2
 62
     1
420
 16717077
370
     9
100
AcDbSpline
210
0.0
220
0.0
230
1.0
 70
    11
 71
     3
 72
    23
 73
    19
 74
     0
 42
0.0000000001
 43
0.0000000001
 12
1.0
 22
0.0
 32
0.0
 13
1.0
 23
0.0
 33
0.0
 40
0.0
 40
0.0
 40
0.0
 40
0.0
 40
1.0
 40
1.0
 40
1.0
 40
2.0
 40
2.0
 40
2.0
 40
3.0
 40
3.0
 40
3.0
 40
4.0
 40
4.0
 40
4.0
 40
5.0
 40
5.0
 40
5.0
 40
6.0
 40
6.0
 40
6.0
 40
6.0
 10
13.8042462385835
 20
-18.52809364334735
 30
0.0
 10
13.8042462385835
 20
-18.52809364334735
 30
0.0
 10
13.80424623900732
 20
-13.80809242264412
 30
0.0
 10
13.80424623900732
 20
-13.80809242264412
 30
0.0
 10
13.80424623900732
 20
-13.80809242264412
 30
0.0
 10
14.82549579819791
 20
-13.80809242273578
 30
0.0
 10
14.82549579819791
 20
-13.80809242273578
 30
0.0
 10
15.17341314303292
 20
-13.80809242276703
 30
0.0
 10
15.4554964424325
 20
-14.09017656992791
 30
0.0
 10
15.45549644240125
 20
-14.43809221934195
 30
0.0
 10
15.45549644240125
 20
-14.43809221934195
 30
0.0
 10
15.45549644209056
 20
-17.89809215152513
 30
0.0
 10
15.45549644209056
 20
-17.89809215152513
 30
0.0
 10
15.45549644205931
 20
-18.24614852088277
 30
0.0
 10
15.17341314260917
 20
-18.52809364347028
 30
0.0
 10
14.82549579777402
 20
-18.52809364343903
 30
0.0
 10
14.82549579777402
 20
-18.52809364343903
 30
0.0
 10
13.8042462385835
 20
-18.52809364334735
 30
0.0
 10
13.8042462385835
 20
-18.52809364334735
 30
0.0
  0
SPLINE
  5
46
330
1F
100
AcDbEntity
  8
Layer 2
 62
     1
420
 16717077
370
     9
100
AcDbSpline
210
0.0
220
0.0
230
1.0
 70
    11
 71
     3
 72
    23
 73
    19
 74
     0
 42
0.0000000001
 43
0.0000000001
 12
1.0
 22
0.0
 32
0.0
 13
1.0
 23
0.0
 33
0.0
 40
0.0
 40
0.0
 40
0.0
 40
0.0
 40
1.0
 40
1.0
 40
1.0
 40
2.0
 40
2.0
 40
2.0
 40
3.0
 40
3.0
 40
3.0
 40
4.0
 40
4.0
 40
4.0
 40
5.0
 40
5.0
 40
5.0
 40
6.0
 40
6.0
 40
6.0
 40
6.0
 10
19.80160731604959
 20
-14.20090594634626
 30
0.0
 10
19.80160731604959
 20
-14.20090594634626
 30
0.0
 10
19.80160731604959
 20
-18.92090716704944
 30
0.0
 10
19.80160731604959
 20
-18.92090716704944
 30
0.0
 10
19.80160731604959
 20
-18.92090716704944
 30
0.0
 10
18.78035775685902
 20
-18.92090716704944
 30
0.0
 10
18.78035775685902
 20
-18.92090716704944
 30
0.0
 10
18.43244041202403
 20
-18.92090716704944
 30
0.0
 10
18.15035711259917
 20
-18.63882301991402
 30
0.0
 10
18.15035711259917
 20
-18.29090737049986
 30
0.0
 10
18.15035711259917
 20
-18.29090737049986
 30
0.0
 10
18.15035711259917
 20
-14.8309074383168
 30
0.0
 10
18.15035711259917
 20
-14.8309074383168
 30
0.0
 10
18.15035711259917
 20
-14.48285106895916
 30
0.0
 10
18.43244041202403
 20
-14.20090594634626
 30
0.0
 10
18.78035775685902
 20
-14.20090594634626
 30
0.0
 10
18.78035775685902
 20
-14.20090594634626
 30
0.0
 10
19.80160731604959
 20
-14.20090594634626
 30
0.0
 10
19.80160731604959
 20
-14.20090594634626
 30
0.0
  0
SPLINE
  5
47
330
1F
100
AcDbEntity
  8
Layer 2
 62
     1
420
 16717077
370
     9
100
AcDbSpline
210
0.0
220
0.0
230
1.0
 70
    11
 71
     3
 72
    23
 73
    19
 74
     0
 42
0.0000000001
 43
0.0000000001
 12
1.0
 22
0.0
 32
0.0
 13
1.0
 23
0.0
 33
0.0
 40
0.0
 40
0.0
 40
0.0
 40
0.0
 40
1.0
 40
1.0
 40
1.0
 40
2.0
 40
2.0
 40
2.0
 40
3.0
 40
3.0
 40
3.0
 40
4.0
 40
4.0
 40
4.0
 40
5.0
 40
5.0
 40
5.0
 40
6.0
 40
6.0
 40
6.0
 40
6.0
 10
19.91535734969458
 20
-18.92090716700361
 30
0.0
 10
19.91535734969458
 20
-18.92090716700361
 30
0.0
 10
19.91535735011848
 20
-14.20090594630041
 30
0.0
 10
19.91535735011848
 20
-14.20090594630041
 30
0.0
 10
19.91535735011848
 20
-14.20090594630041
 30
0.0
 10
20.93660690930902
 20
-14.20090594639209
 30
0.0
 10
20.93660690930902
 20
-14.20090594639209
 30
0.0
 10
21.28452425414404
 20
-14.20090594642334
 30
0.0
 10
21.56660755354361
 20
-14.48299009358417
 30
0.0
 10
21.56660755351236
 20
-14.83090574299818
 30
0.0
 10
21.56660755351236
 20
-14.83090574299818
 30
0.0
 10
21.56660755320167
 20
-18.2909056751814
 30
0.0
 10
21.56660755320167
 20
-18.2909056751814
 30
0.0
 10
21.56660755317042
 20
-18.63896204453903
 30
0.0
 10
21.28452425372027
 20
-18.92090716712654
 30
0.0
 10
20.93660690888515
 20
-18.92090716709527
 30
0.0
 10
20.93660690888515
 20
-18.92090716709527
 30
0.0
 10
19.91535734969458
 20
-18.92090716700361
 30
0.0
 10
19.91535734969458
 20
-18.92090716700361
 30
0.0
  0
INSERT
  5
49
330
1F
100
AcDbEntity
  8
Layer 2
100
AcDbBlockReference
  2
block 2
 10
0.0
 20
0.0
 30
0.0
  0
INSERT
  5
4F
330
1F
100
AcDbEntity
  8
Layer 2
100
AcDbBlockReference
  2
block 3
 10
0.0
 20
0.0
 30
0.0
  0
INSERT
  5
55
330
1F
100
AcDbEntity
  8
Layer 2
100
AcDbBlockReference
  2
block 4
 10
0.0
 20
0.0
 30
0.0
  0
SPLINE
  5
5A
330
1F
100
AcDbEntity
  8
Layer 2
 62
     1
420
 16717077
370
     9
100
AcDbSpline
210
0.0
220
0.0
230
1.0
 70
    11
 71
     3
 72
    71
 73
    67
 74
     0
 42
0.0000000001
 43
0.0000000001
 12
1.0
 22
0.0
 32
0.0
 13
1.0
 23
0.0
 33
0.0
 40
0.0
 40
0.0
 40
0.0
 40
0.0
 40
1.0
 40
1.0
 40
1.0
 40
2.0
 40
2.0
 40
2.0
 40
3.0
 40
3.0
 40
3.0
 40
4.0
 40
4.0
 40
4.0
 40
5.0
 40
5.0
 40
5.0
 40
6.0
 40
6.0
 40
6.0
 40
7.0
 40
7.0
 40
7.0
 40
8.0
 40
8.0
 40
8.0
 40
9.0
 40
9.0
 40
9.0
 40
10.0
 40
10.0
 40
10.0
 40
11.0
 40
11.0
 40
11.0
 40
12.0
 40
12.0
 40
12.0
 40
13.0
 40
13.0
 40
13.0
 40
14.0
 40
14.0
 40
14.0
 40
15.0
 40
15.0
 40
15.0
 40
16.0
 40
16.0
 40
16.0
 40
17.0
 40
17.0
 40
17.0
 40
18.0
 40
18.0
 40
18.0
 40
19.0
 40
19.0
 40
19.0
 40
20.0
 40
20.0
 40
20.0
 40
21.0
 40
21.0
 40
21.0
 40
22.0
 40
22.0
 40
22.0
 40
22.0
 10
21.84257970805735
 20
-20.09621820258361
 30
0.0
 10
21.84257970805735
 20
-20.09621820258361
 30
0.0
 10
21.84257970805735
 20
-20.48996786349943
 30
0.0
 10
21.84257970805735
 20
-20.48996786349943
 30
0.0
 10
21.84257970805735
 20
-20.48996786349943
 30
0.0
 10
17.12257933506472
 20
-20.48996786349943
 30
0.0
 10
17.12257933506472
 20
-20.48996786349943
 30
0.0
 10
17.12257933506472
 20
-20.48996786349943
 30
0.0
 10
17.12257933506472
 20
-11.94383362015037
 30
0.0
 10
17.12257933506472
 20
-11.94383362015037
 30
0.0
 10
17.12257933506472
 20
-11.88992211367992
 30
0.0
 10
17.16628324616098
 20
-11.84621820258366
 30
0.0
 10
17.22019475263139
 20
-11.84621820258366
 30
0.0
 10
17.22019475263139
 20
-11.84621820258366
 30
0.0
 10
17.66841249885598
 20
-11.84621820258366
 30
0.0
 10
17.66841249885598
 20
-11.84621820258366
 30
0.0
 10
17.66841249885598
 20
-11.90066240966918
 30
0.0
 10
17.69049535747139
 20
-11.94982961887057
 30
0.0
 10
17.72605087911861
 20
-11.98538514051769
 30
0.0
 10
17.7616064007657
 20
-12.02094066216483
 30
0.0
 10
17.81077360996709
 20
-12.04302352078028
 30
0.0
 10
17.86521781705264
 20
-12.04302352078028
 30
0.0
 10
17.86521781705264
 20
-12.04302352078028
 30
0.0
 10
19.37994000536638
 20
-12.04302352078028
 30
0.0
 10
19.37994000536638
 20
-12.04302352078028
 30
0.0
 10
19.48869024272527
 20
-12.04302352078028
 30
0.0
 10
19.57674532356305
 20
-11.9549684399426
 30
0.0
 10
19.57674532356305
 20
-11.84621820258366
 30
0.0
 10
19.57674532356305
 20
-11.84621820258366
 30
0.0
 10
20.02496306978749
 20
-11.84621820258366
 30
0.0
 10
20.02496306978749
 20
-11.84621820258366
 30
0.0
 10
20.07887457625806
 20
-11.84621820258366
 30
0.0
 10
20.1225784873543
 20
-11.88992211367992
 30
0.0
 10
20.1225784873543
 20
-11.94383362015037
 30
0.0
 10
20.1225784873543
 20
-11.94383362015037
 30
0.0
 10
20.1225784873543
 20
-12.33999190944019
 30
0.0
 10
20.1225784873543
 20
-12.33999190944019
 30
0.0
 10
20.1225784873543
 20
-12.39390341662319
 30
0.0
 10
20.07887457514597
 20
-12.43760732801459
 30
0.0
 10
20.02496306796292
 20
-12.43760732700689
 30
0.0
 10
20.02496306796292
 20
-12.43760732700689
 30
0.0
 10
18.51512495048888
 20
-12.43760729878537
 30
0.0
 10
18.51512495048888
 20
-12.43760729878537
 30
0.0
 10
18.25153738636181
 20
-12.43760729385844
 30
0.0
 10
17.99674004358306
 20
-12.53906559598767
 30
0.0
 10
17.80988468586083
 20
-12.72497815407059
 30
0.0
 10
17.80750451076874
 20
-12.7273463197226
 30
0.0
 10
17.80513233588931
 20
-12.72972252043443
 30
0.0
 10
17.80276820553084
 20
-12.73210671203621
 30
0.0
 10
17.61749655514709
 20
-12.91895051753383
 30
0.0
 10
17.51632897230666
 20
-13.17327193155481
 30
0.0
 10
17.51632897328333
 20
-13.43639964216077
 30
0.0
 10
17.51632897328333
 20
-13.43639964216077
 30
0.0
 10
17.51632899462763
 20
-19.18740380451209
 30
0.0
 10
17.51632899462763
 20
-19.18740380451209
 30
0.0
 10
17.51632899544973
 20
-19.40891873354541
 30
0.0
 10
17.59675314232721
 20
-19.62290006633945
 30
0.0
 10
17.74265429810596
 20
-19.789578548835
 30
0.0
 10
17.74265429810596
 20
-19.789578548835
 30
0.0
 10
17.7449404122675
 20
-19.79219022135542
 30
0.0
 10
17.7449404122675
 20
-19.79219022135542
 30
0.0
 10
17.91406534837402
 20
-19.98539971001181
 30
0.0
 10
18.158347010025
 20
-20.09621820258361
 30
0.0
 10
18.41512152301263
 20
-20.09621820258361
 30
0.0
 10
18.41512152301263
 20
-20.09621820258361
 30
0.0
 10
21.84257970805735
 20
-20.09621820258361
 30
0.0
 10
21.84257970805735
 20
-20.09621820258361
 30
0.0
  0
ENDSEC
  0
SECTION
  2
OBJECTS
  0
DICTIONARY
  5
C
330
0
100
AcDbDictionary
281
     1
  3
ACAD_GROUP
350
D
  3
ACAD_LAYOUT
350
1A
  3
ACAD_MATERIAL
350
3B
  3
ACAD_MLEADERSTYLE
350
5C
  3
ACAD_MLINESTYLE
350
17
  3
ACAD_PLOTSETTINGS
350
19
  3
ACAD_PLOTSTYLENAME
350
E
  3
ACAD_TABLESTYLE
350
5B
  3
ACAD_VISUALSTYLE
350
2A
  0
SUN
  5
3F
330
29
100
AcDbSun
 90
        1
290
     0
 63
     7
421
 16777215
 40
1.0
291
     1
 91
  2455826
 92
 54000000
292
     0
 70
     2
 71
   256
280
     1
  0
DICTIONARY
  5
D
102
{ACAD_REACTORS
330
C
102
}
330
C
100
AcDbDictionary
281
     1
  0
DICTIONARY
  5
1A
102
{ACAD_REACTORS
330
C
102
}
330
C
100
AcDbDictionary
281
     1
  3
Layout1
350
1E
  3
Layout2
350
26
  3
Model
350
22
  0
DICTIONARY
  5
3B
102
{ACAD_REACTORS
330
C
102
}
330
C
100
AcDbDictionary
281
     1
  3
ByBlock
350
3D
  3
ByLayer
350
3C
  3
Global
350
3E
  0
DICTIONARY
  5
5C
102
{ACAD_REACTORS
330
C
102
}
330
C
100
AcDbDictionary
281
     1
  0
DICTIONARY
  5
17
102
{ACAD_REACTORS
330
C
102
}
330
C
100
AcDbDictionary
281
     1
  3
Standard
350
18
  0
DICTIONARY
  5
19
102
{ACAD_REACTORS
330
C
102
}
330
C
100
AcDbDictionary
281
     1
  0
ACDBDICTIONARYWDFLT
  5
E
102
{ACAD_REACTORS
330
C
102
}
330
C
100
AcDbDictionary
281
     1
  3
Normal
350
F
100
AcDbDictionaryWithDefault
340
F
  0
DICTIONARY
  5
5B
102
{ACAD_REACTORS
330
C
102
}
330
C
100
AcDbDictionary
281
     1
  0
DICTIONARY
  5
2A
102
{ACAD_REACTORS
330
C
102
}
330
C
100
AcDbDictionary
281
     1
  3
2dWireframe
350
2F
  3
3D Hidden
350
31
  3
3dWireframe
350
30
  3
Basic
350
32
  3
Brighten
350
36
  3
ColorChange
350
3A
  3
Conceptual
350
34
  3
Dim
350
35
  3
Facepattern
350
39
  3
Flat
350
2B
  3
FlatWithEdges
350
2C
  3
Gouraud
350
2D
  3
GouraudWithEdges
350
2E
  3
Linepattern
350
38
  3
Realistic
350
33
  3
Thicken
350
37
  0
LAYOUT
  5
1E
102
{ACAD_REACTORS
330
1A
102
}
330
1A
100
AcDbPlotSettings
  1

  2
none_device
  4

  6

 40
0.0
 41
0.0
 42
0.0
 43
0.0
 44
0.0
 45
0.0
 46
0.0
 47
0.0
 48
0.0
 49
0.0
140
0.0
141
0.0
142
1.0
143
1.0
 70
   688
 72
     0
 73
     0
 74
     5
  7

 75
    16
 76
     0
 77
     2
 78
   300
147
1.0
148
0.0
149
0.0
100
AcDbLayout
  1
Layout1
 70
     1
 71
     1
 10
0.0
 20
0.0
 11
12.0
 21
9.0
 12
0.0
 22
0.0
 32
0.0
 14
1.000000000000000E+20
 24
1.000000000000000E+20
 34
1.000000000000000E+20
 15
-1.000000000000000E+20
 25
-1.000000000000000E+20
 35
-1.000000000000000E+20
146
0.0
 13
0.0
 23
0.0
 33
0.0
 16
1.0
 26
0.0
 36
0.0
 17
0.0
 27
1.0
 37
0.0
 76
     0
330
1B
  0
LAYOUT
  5
26
102
{ACAD_REACTORS
330
1A
102
}
330
1A
100
AcDbPlotSettings
  1

  2
none_device
  4

  6

 40
0.0
 41
0.0
 42
0.0
 43
0.0
 44
0.0
 45
0.0
 46
0.0
 47
0.0
 48
0.0
 49
0.0
140
0.0
141
0.0
142
1.0
143
1.0
 70
   688
 72
     0
 73
     0
 74
     5
  7

 75
    16
 76
     0
 77
     2
 78
   300
147
1.0
148
0.0
149
0.0
100
AcDbLayout
  1
Layout2
 70
     1
 71
     2
 10
0.0
 20
0.0
 11
0.0
 21
0.0
 12
0.0
 22
0.0
 32
0.0
 14
0.0
 24
0.0
 34
0.0
 15
0.0
 25
0.0
 35
0.0
146
0.0
 13
0.0
 23
0.0
 33
0.0
 16
1.0
 26
0.0
 36
0.0
 17
0.0
 27
1.0
 37
0.0
 76
     0
330
23
  0
LAYOUT
  5
22
102
{ACAD_REACTORS
330
1A
102
}
330
1A
100
AcDbPlotSettings
  1

  2
none_device
  4

  6

 40
0.0
 41
0.0
 42
0.0
 43
0.0
 44
0.0
 45
0.0
 46
0.0
 47
0.0
 48
0.0
 49
0.0
140
0.0
141
0.0
142
1.0
143
1.0
 70
  1712
 72
     0
 73
     0
 74
     0
  7

 75
     0
 76
     0
 77
     2
 78
   300
147
1.0
148
0.0
149
0.0
100
AcDbLayout
  1
Model
 70
     1
 71
     0
 10
0.0
 20
0.0
 11
12.0
 21
9.0
 12
0.0
 22
0.0
 32
0.0
 14
1.000000000000000E+20
 24
1.000000000000000E+20
 34
1.000000000000000E+20
 15
-1.000000000000000E+20
 25
-1.000000000000000E+20
 35
-1.000000000000000E+20
146
0.0
 13
0.0
 23
0.0
 33
0.0
 16
1.0
 26
0.0
 36
0.0
 17
0.0
 27
1.0
 37
0.0
 76
     0
330
1F
331
29
  0
MATERIAL
  5
3D
102
{ACAD_REACTORS
330
3B
102
}
330
3B
100
AcDbMaterial
  1
ByBlock
 72
     1
 94
      127
  0
MATERIAL
  5
3C
102
{ACAD_REACTORS
330
3B
102
}
330
3B
100
AcDbMaterial
  1
ByLayer
 72
     1
 94
      127
  0
MATERIAL
  5
3E
102
{ACAD_REACTORS
330
3B
102
}
330
3B
100
AcDbMaterial
  1
Global
 72
     1
 94
      127
  0
MLINESTYLE
  5
18
102
{ACAD_REACTORS
330
17
102
}
330
17
100
AcDbMlineStyle
  2
Standard
 70
     0
  3

 62
   256
 51
90.0
 52
90.0
 71
     2
 49
0.5
 62
   256
  6
BYLAYER
 49
-0.5
 62
   256
  6
BYLAYER
  0
ACDBPLACEHOLDER
  5
F
102
{ACAD_REACTORS
330
E
102
}
330
E
  0
VISUALSTYLE
  5
2F
102
{ACAD_REACTORS
330
2A
102
}
330
2A
100
AcDbVisualStyle
  2
2dWireframe
 70
     4
177
     2
291
     0
 71
     0
176
     1
 72
     2
176
     1
 73
     0
176
     1
 90
        0
176
     1
 40
-0.6
176
     1
 41
-30.0
176
     1
 62
     5
 63
     7
421
 16777215
176
     1
 74
     1
176
     1
 91
        4
176
     1
 64
     7
176
     1
 65
   257
176
     1
 75
     1
176
     1
175
     1
176
     1
 42
1.0
176
     1
 92
        0
176
     1
 66
   257
176
     1
 43
1.0
176
     1
 76
     1
176
     1
 77
     6
176
     1
 78
     2
176
     1
 67
     7
176
     1
 79
     5
176
     1
170
     0
176
     1
171
     0
176
     1
290
     0
176
     1
 93
        1
176
     1
 44
0.0
176
     1
173
     0
176
     1
  0
VISUALSTYLE
  5
31
102
{ACAD_REACTORS
330
2A
102
}
330
2A
100
AcDbVisualStyle
  2
3D Hidden
 70
     6
177
     2
291
     0
 71
     1
176
     1
 72
     2
176
     1
 73
     2
176
     1
 90
        0
176
     1
 40
-0.6
176
     1
 41
-30.0
176
     1
 62
     5
 63
     7
421
 16777215
176
     1
 74
     2
176
     1
 91
        2
176
     1
 64
     7
176
     1
 65
   257
176
     1
 75
     2
176
     1
175
     1
176
     1
 42
40.0
176
     1
 92
        0
176
     1
 66
   257
176
     1
 43
1.0
176
     1
 76
     1
176
     1
 77
     6
176
     1
 78
     2
176
     1
 67
     7
176
     1
 79
     3
176
     1
170
     0
176
     1
171
     0
176
     1
290
     0
176
     1
 93
        1
176
     1
 44
0.0
176
     1
173
     0
176
     1
  0
VISUALSTYLE
  5
30
102
{ACAD_REACTORS
330
2A
102
}
330
2A
100
AcDbVisualStyle
  2
3dWireframe
 70
     5
177
     2
291
     0
 71
     0
176
     1
 72
     2
176
     1
 73
     0
176
     1
 90
        0
176
     1
 40
-0.6
176
     1
 41
-30.0
176
     1
 62
     5
 63
     7
421
 16777215
176
     1
 74
     1
176
     1
 91
        4
176
     1
 64
     7
176
     1
 65
   257
176
     1
 75
     1
176
     1
175
     1
176
     1
 42
1.0
176
     1
 92
        0
176
     1
 66
   257
176
     1
 43
1.0
176
     1
 76
     1
176
     1
 77
     6
176
     1
 78
     2
176
     1
 67
     7
176
     1
 79
     5
176
     1
170
     0
176
     1
171
     0
176
     1
290
     0
176
     1
 93
        1
176
     1
 44
0.0
176
     1
173
     0
176
     1
  0
VISUALSTYLE
  5
32
102
{ACAD_REACTORS
330
2A
102
}
330
2A
100
AcDbVisualStyle
  2
Basic
 70
     7
177
     2
291
     1
 71
     1
176
     1
 72
     0
176
     1
 73
     1
176
     1
 90
        0
176
     1
 40
-0.6
176
     1
 41
-30.0
176
     1
 62
     5
 63
     7
421
 16777215
176
     1
 74
     0
176
     1
 91
        4
176
     1
 64
     7
176
     1
 65
   257
176
     1
 75
     1
176
     1
175
     1
176
     1
 42
1.0
176
     1
 92
        8
176
     1
 66
     7
176
     1
 43
1.0
176
     1
 76
     1
176
     1
 77
     6
176
     1
 78
     2
176
     1
 67
     7
176
     1
 79
     5
176
     1
170
     0
176
     1
171
     0
176
     1
290
     0
176
     1
 93
        1
176
     1
 44
0.0
176
     1
173
     0
176
     1
  0
VISUALSTYLE
  5
36
102
{ACAD_REACTORS
330
2A
102
}
330
2A
100
AcDbVisualStyle
  2
Brighten
 70
    12
177
     2
291
     1
 71
     2
176
     1
 72
     2
176
     1
 73
     0
176
     1
 90
        0
176
     1
 40
-0.6
176
     1
 41
-30.0
176
     1
 62
     5
 63
     7
421
 16777215
176
     1
 74
     1
176
     1
 91
        4
176
     1
 64
     7
176
     1
 65
   257
176
     1
 75
     1
176
     1
175
     1
176
     1
 42
1.0
176
     1
 92
        8
176
     1
 66
     7
176
     1
 43
1.0
176
     1
 76
     1
176
     1
 77
     6
176
     1
 78
     2
176
     1
 67
     7
176
     1
 79
     5
176
     1
170
     0
176
     1
171
     0
176
     1
290
     0
176
     1
 93
        1
176
     1
 44
50.0
176
     1
173
     0
176
     1
  0
VISUALSTYLE
  5
3A
102
{ACAD_REACTORS
330
2A
102
}
330
2A
100
AcDbVisualStyle
  2
ColorChange
 70
    16
177
     2
291
     1
 71
     2
176
     1
 72
     2
176
     1
 73
     3
176
     1
 90
        0
176
     1
 40
-0.6
176
     1
 41
-30.0
176
     1
 62
     5
 63
     8
421
  8421504
176
     1
 74
     1
176
     1
 91
        4
176
     1
 64
     7
176
     1
 65
   257
176
     1
 75
     1
176
     1
175
     1
176
     1
 42
1.0
176
     1
 92
        8
176
     1
 66
     8
424
  8421504
176
     1
 43
1.0
176
     1
 76
     1
176
     1
 77
     6
176
     1
 78
     2
176
     1
 67
     7
176
     1
 79
     5
176
     1
170
     0
176
     1
171
     0
176
     1
290
     0
176
     1
 93
        1
176
     1
 44
0.0
176
     1
173
     0
176
     1
  0
VISUALSTYLE
  5
34
102
{ACAD_REACTORS
330
2A
102
}
330
2A
100
AcDbVisualStyle
  2
Conceptual
 70
     9
177
     2
291
     0
 71
     3
176
     1
 72
     2
176
     1
 73
     0
176
     1
 90
        0
176
     1
 40
-0.6
176
     1
 41
-30.0
176
     1
 62
     5
 63
     7
421
 16777215
176
     1
 74
     2
176
     1
 91
        2
176
     1
 64
     7
176
     1
 65
   257
176
     1
 75
     1
176
     1
175
     1
176
     1
 42
40.0
176
     1
 92
        8
176
     1
 66
     7
176
     1
 43
1.0
176
     1
 76
     1
176
     1
 77
     6
176
     1
 78
     2
176
     1
 67
     7
176
     1
 79
     3
176
     1
170
     0
176
     1
171
     0
176
     1
290
     0
176
     1
 93
        1
176
     1
 44
0.0
176
     1
173
     0
176
     1
  0
VISUALSTYLE
  5
35
102
{ACAD_REACTORS
330
2A
102
}
330
2A
100
AcDbVisualStyle
  2
Dim
 70
    11
177
     2
291
     1
 71
     2
176
     1
 72
     2
176
     1
 73
     0
176
     1
 90
        0
176
     1
 40
-0.6
176
     1
 41
-30.0
176
     1
 62
     5
 63
     7
421
 16777215
176
     1
 74
     1
176
     1
 91
        4
176
     1
 64
     7
176
     1
 65
   257
176
     1
 75
     1
176
     1
175
     1
176
     1
 42
1.0
176
     1
 92
        8
176
     1
 66
     7
176
     1
 43
1.0
176
     1
 76
     1
176
     1
 77
     6
176
     1
 78
     2
176
     1
 67
     7
176
     1
 79
     5
176
     1
170
     0
176
     1
171
     0
176
     1
290
     0
176
     1
 93
        1
176
     1
 44
-50.0
176
     1
173
     0
176
     1
  0
VISUALSTYLE
  5
39
102
{ACAD_REACTORS
330
2A
102
}
330
2A
100
AcDbVisualStyle
  2
Facepattern
 70
    15
177
     2
291
     1
 71
     2
176
     1
 72
     2
176
     1
 73
     0
176
     1
 90
        0
176
     1
 40
-0.6
176
     1
 41
-30.0
176
     1
 62
     5
 63
     7
421
 16777215
176
     1
 74
     1
176
     1
 91
        4
176
     1
 64
     7
176
     1
 65
   257
176
     1
 75
     1
176
     1
175
     1
176
     1
 42
1.0
176
     1
 92
        8
176
     1
 66
     7
176
     1
 43
1.0
176
     1
 76
     1
176
     1
 77
     6
176
     1
 78
     2
176
     1
 67
     7
176
     1
 79
     5
176
     1
170
     0
176
     1
171
     0
176
     1
290
     0
176
     1
 93
        1
176
     1
 44
0.0
176
     1
173
     0
176
     1
  0
VISUALSTYLE
  5
2B
102
{ACAD_REACTORS
330
2A
102
}
330
2A
100
AcDbVisualStyle
  2
Flat
 70
     0
177
     2
291
     1
 71
     2
176
     1
 72
     1
176
     1
 73
     1
176
     1
 90
        2
176
     1
 40
-0.6
176
     1
 41
30.0
176
     1
 62
     5
 63
     7
421
 16777215
176
     1
 74
     0
176
     1
 91
        4
176
     1
 64
     7
176
     1
 65
   257
176
     1
 75
     1
176
     1
175
     1
176
     1
 42
1.0
176
     1
 92
        8
176
     1
 66
     7
176
     1
 43
1.0
176
     1
 76
     1
176
     1
 77
     6
176
     1
 78
     2
176
     1
 67
     7
176
     1
 79
     5
176
     1
170
     0
176
     1
171
     0
176
     1
290
     0
176
     1
 93
       13
176
     1
 44
0.0
176
     1
173
     0
176
     1
  0
VISUALSTYLE
  5
2C
102
{ACAD_REACTORS
330
2A
102
}
330
2A
100
AcDbVisualStyle
  2
FlatWithEdges
 70
     1
177
     2
291
     1
 71
     2
176
     1
 72
     1
176
     1
 73
     1
176
     1
 90
        2
176
     1
 40
-0.6
176
     1
 41
30.0
176
     1
 62
     5
 63
     7
421
 16777215
176
     1
 74
     1
176
     1
 91
        4
176
     1
 64
     7
176
     1
 65
   257
176
     1
 75
     1
176
     1
175
     1
176
     1
 42
1.0
176
     1
 92
        0
176
     1
 66
   257
176
     1
 43
1.0
176
     1
 76
     1
176
     1
 77
     6
176
     1
 78
     2
176
     1
 67
     7
176
     1
 79
     5
176
     1
170
     0
176
     1
171
     0
176
     1
290
     0
176
     1
 93
       13
176
     1
 44
0.0
176
     1
173
     0
176
     1
  0
VISUALSTYLE
  5
2D
102
{ACAD_REACTORS
330
2A
102
}
330
2A
100
AcDbVisualStyle
  2
Gouraud
 70
     2
177
     2
291
     1
 71
     2
176
     1
 72
     2
176
     1
 73
     1
176
     1
 90
        2
176
     1
 40
-0.6
176
     1
 41
30.0
176
     1
 62
     5
 63
     7
421
 16777215
176
     1
 74
     0
176
     1
 91
        4
176
     1
 64
     7
176
     1
 65
   257
176
     1
 75
     1
176
     1
175
     1
176
     1
 42
1.0
176
     1
 92
        0
176
     1
 66
     7
176
     1
 43
1.0
176
     1
 76
     1
176
     1
 77
     6
176
     1
 78
     2
176
     1
 67
     7
176
     1
 79
     5
176
     1
170
     0
176
     1
171
     0
176
     1
290
     0
176
     1
 93
       13
176
     1
 44
0.0
176
     1
173
     0
176
     1
  0
VISUALSTYLE
  5
2E
102
{ACAD_REACTORS
330
2A
102
}
330
2A
100
AcDbVisualStyle
  2
GouraudWithEdges
 70
     3
177
     2
291
     1
 71
     2
176
     1
 72
     2
176
     1
 73
     1
176
     1
 90
        2
176
     1
 40
-0.6
176
     1
 41
30.0
176
     1
 62
     5
 63
     7
421
 16777215
176
     1
 74
     1
176
     1
 91
        4
176
     1
 64
     7
176
     1
 65
   257
176
     1
 75
     1
176
     1
175
     1
176
     1
 42
1.0
176
     1
 92
        0
176
     1
 66
   257
176
     1
 43
1.0
176
     1
 76
     1
176
     1
 77
     6
176
     1
 78
     2
176
     1
 67
     7
176
     1
 79
     5
176
     1
170
     0
176
     1
171
     0
176
     1
290
     0
176
     1
 93
       13
176
     1
 44
0.0
176
     1
173
     0
176
     1
  0
VISUALSTYLE
  5
38
102
{ACAD_REACTORS
330
2A
102
}
330
2A
100
AcDbVisualStyle
  2
Linepattern
 70
    14
177
     2
291
     1
 71
     2
176
     1
 72
     2
176
     1
 73
     0
176
     1
 90
        0
176
     1
 40
-0.6
176
     1
 41
-30.0
176
     1
 62
     5
 63
     7
421
 16777215
176
     1
 74
     1
176
     1
 91
        4
176
     1
 64
     7
176
     1
 65
   257
176
     1
 75
     7
176
     1
175
     7
176
     1
 42
1.0
176
     1
 92
        8
176
     1
 66
     7
176
     1
 43
1.0
176
     1
 76
     1
176
     1
 77
     6
176
     1
 78
     2
176
     1
 67
     7
176
     1
 79
     5
176
     1
170
     0
176
     1
171
     0
176
     1
290
     0
176
     1
 93
        1
176
     1
 44
0.0
176
     1
173
     0
176
     1
  0
VISUALSTYLE
  5
33
102
{ACAD_REACTORS
330
2A
102
}
330
2A
100
AcDbVisualStyle
  2
Realistic
 70
     8
177
     2
291
     0
 71
     2
176
     1
 72
     2
176
     1
 73
     0
176
     1
 90
        0
176
     1
 40
-0.6
176
     1
 41
-30.0
176
     1
 62
     5
 63
     7
421
 16777215
176
     1
 74
     1
176
     1
 91
        0
176
     1
 64
     7
176
     1
 65
   257
176
     1
 75
     1
176
     1
175
     1
176
     1
 42
1.0
176
     1
 92
        8
176
     1
 66
     8
424
  7895160
176
     1
 43
1.0
176
     1
 76
     1
176
     1
 77
     6
176
     1
 78
     2
176
     1
 67
     7
176
     1
 79
     5
176
     1
170
     0
176
     1
171
     0
176
     1
290
     0
176
     1
 93
       13
176
     1
 44
0.0
176
     1
173
     0
176
     1
  0
VISUALSTYLE
  5
37
102
{ACAD_REACTORS
330
2A
102
}
330
2A
100
AcDbVisualStyle
  2
Thicken
 70
    13
177
     2
291
     1
 71
     2
176
     1
 72
     2
176
     1
 73
     0
176
     1
 90
        0
176
     1
 40
-0.6
176
     1
 41
-30.0
176
     1
 62
     5
 63
     7
421
 16777215
176
     1
 74
     1
176
     1
 91
        4
176
     1
 64
     7
176
     1
 65
   257
176
     1
 75
     1
176
     1
175
     1
176
     1
 42
1.0
176
     1
 92
       12
176
     1
 66
     7
176
     1
 43
1.0
176
     1
 76
     1
176
     1
 77
     6
176
     1
 78
     2
176
     1
 67
     7
176
     1
 79
     5
176
     1
170
     0
176
     1
171
     0
176
     1
290
     0
176
     1
 93
        1
176
     1
 44
0.0
176
     1
173
     0
176
     1
  0
ENDSEC
  0
EOF
